%TF.GenerationSoftware,KiCad,Pcbnew,9.0.7*%
%TF.CreationDate,2026-04-07T22:32:17-07:00*%
%TF.ProjectId,Xiao_iCE40LP384_Addon,5869616f-5f69-4434-9534-304c50333834,rev?*%
%TF.SameCoordinates,Original*%
%TF.FileFunction,Paste,Top*%
%TF.FilePolarity,Positive*%
%FSLAX46Y46*%
G04 Gerber Fmt 4.6, Leading zero omitted, Abs format (unit mm)*
G04 Created by KiCad (PCBNEW 9.0.7) date 2026-04-07 22:32:17*
%MOMM*%
%LPD*%
G01*
G04 APERTURE LIST*
G04 Aperture macros list*
%AMRoundRect*
0 Rectangle with rounded corners*
0 $1 Rounding radius*
0 $2 $3 $4 $5 $6 $7 $8 $9 X,Y pos of 4 corners*
0 Add a 4 corners polygon primitive as box body*
4,1,4,$2,$3,$4,$5,$6,$7,$8,$9,$2,$3,0*
0 Add four circle primitives for the rounded corners*
1,1,$1+$1,$2,$3*
1,1,$1+$1,$4,$5*
1,1,$1+$1,$6,$7*
1,1,$1+$1,$8,$9*
0 Add four rect primitives between the rounded corners*
20,1,$1+$1,$2,$3,$4,$5,0*
20,1,$1+$1,$4,$5,$6,$7,0*
20,1,$1+$1,$6,$7,$8,$9,0*
20,1,$1+$1,$8,$9,$2,$3,0*%
G04 Aperture macros list end*
%ADD10C,0.000000*%
%ADD11RoundRect,0.218750X0.256250X-0.218750X0.256250X0.218750X-0.256250X0.218750X-0.256250X-0.218750X0*%
%ADD12R,0.275000X0.799999*%
%ADD13R,0.799999X0.275000*%
%ADD14R,1.750000X1.750000*%
%ADD15RoundRect,0.140000X-0.170000X0.140000X-0.170000X-0.140000X0.170000X-0.140000X0.170000X0.140000X0*%
%ADD16RoundRect,0.140000X0.140000X0.170000X-0.140000X0.170000X-0.140000X-0.170000X0.140000X-0.170000X0*%
%ADD17RoundRect,0.135000X-0.185000X0.135000X-0.185000X-0.135000X0.185000X-0.135000X0.185000X0.135000X0*%
%ADD18RoundRect,0.135000X0.185000X-0.135000X0.185000X0.135000X-0.185000X0.135000X-0.185000X-0.135000X0*%
%ADD19RoundRect,0.135000X0.135000X0.185000X-0.135000X0.185000X-0.135000X-0.185000X0.135000X-0.185000X0*%
%ADD20R,1.550000X1.000000*%
%ADD21RoundRect,0.140000X0.170000X-0.140000X0.170000X0.140000X-0.170000X0.140000X-0.170000X-0.140000X0*%
%ADD22R,0.254000X0.804800*%
%ADD23R,0.804800X0.254000*%
%ADD24R,3.733800X3.733800*%
%ADD25RoundRect,0.135000X-0.135000X-0.185000X0.135000X-0.185000X0.135000X0.185000X-0.135000X0.185000X0*%
G04 APERTURE END LIST*
D10*
%TO.C,U1*%
G36*
X105433000Y-62896000D02*
G01*
X103766100Y-62896000D01*
X103766100Y-61229100D01*
X105433000Y-61229100D01*
X105433000Y-62896000D01*
G37*
G36*
X105433000Y-64762900D02*
G01*
X103766100Y-64762900D01*
X103766100Y-63096000D01*
X105433000Y-63096000D01*
X105433000Y-64762900D01*
G37*
G36*
X107299900Y-62896000D02*
G01*
X105633000Y-62896000D01*
X105633000Y-61229100D01*
X107299900Y-61229100D01*
X107299900Y-62896000D01*
G37*
G36*
X107299900Y-64762900D02*
G01*
X105633000Y-64762900D01*
X105633000Y-63096000D01*
X107299900Y-63096000D01*
X107299900Y-64762900D01*
G37*
%TD*%
D11*
%TO.C,D1*%
X111450000Y-70387500D03*
X111450000Y-68812500D03*
%TD*%
D12*
%TO.C,U2*%
X110109000Y-53340000D03*
X109608999Y-53340000D03*
X109108999Y-53340000D03*
X108608998Y-53340000D03*
D13*
X107908999Y-54039999D03*
X107908999Y-54540000D03*
X107908999Y-55040000D03*
X107908999Y-55540001D03*
D12*
X108608998Y-56240000D03*
X109108999Y-56240000D03*
X109608999Y-56240000D03*
X110109000Y-56240000D03*
D13*
X110808999Y-55540001D03*
X110808999Y-55040000D03*
X110808999Y-54540000D03*
X110808999Y-54039999D03*
D14*
X109358999Y-54790000D03*
%TD*%
D15*
%TO.C,C16*%
X109601000Y-58956000D03*
X109601000Y-59916000D03*
%TD*%
D16*
%TO.C,C1*%
X110970000Y-52070000D03*
X110010000Y-52070000D03*
%TD*%
%TO.C,C7*%
X105636000Y-58420000D03*
X104676000Y-58420000D03*
%TD*%
D17*
%TO.C,R12*%
X110744000Y-61722000D03*
X110744000Y-62742000D03*
%TD*%
D15*
%TO.C,C8*%
X108864400Y-65763200D03*
X108864400Y-66723200D03*
%TD*%
%TO.C,C11*%
X109728000Y-61750000D03*
X109728000Y-62710000D03*
%TD*%
D16*
%TO.C,C9*%
X105156000Y-66675000D03*
X104196000Y-66675000D03*
%TD*%
D18*
%TO.C,R13*%
X111887000Y-62742000D03*
X111887000Y-61722000D03*
%TD*%
D19*
%TO.C,R3*%
X106428000Y-54229000D03*
X105408000Y-54229000D03*
%TD*%
D17*
%TO.C,R10*%
X102235000Y-67816000D03*
X102235000Y-68836000D03*
%TD*%
D16*
%TO.C,C13*%
X109065000Y-57531000D03*
X108105000Y-57531000D03*
%TD*%
D18*
%TO.C,R5*%
X111887000Y-53086000D03*
X111887000Y-52066000D03*
%TD*%
D19*
%TO.C,R1*%
X106428000Y-56261000D03*
X105408000Y-56261000D03*
%TD*%
D20*
%TO.C,SW1*%
X109305000Y-70327000D03*
X104055000Y-70327000D03*
X109305000Y-68627000D03*
X104055000Y-68627000D03*
%TD*%
D17*
%TO.C,R8*%
X101346000Y-51306000D03*
X101346000Y-52326000D03*
%TD*%
%TO.C,R11*%
X111048800Y-63652400D03*
X111048800Y-64672400D03*
%TD*%
%TO.C,R9*%
X101346000Y-53795200D03*
X101346000Y-54815200D03*
%TD*%
D21*
%TO.C,C6*%
X101727000Y-60551000D03*
X101727000Y-59591000D03*
%TD*%
D16*
%TO.C,C4*%
X103731000Y-54229000D03*
X102771000Y-54229000D03*
%TD*%
D21*
%TO.C,C12*%
X102743000Y-59662000D03*
X102743000Y-58702000D03*
%TD*%
D19*
%TO.C,R2*%
X106428000Y-53213000D03*
X105408000Y-53213000D03*
%TD*%
%TO.C,R4*%
X106428000Y-55245000D03*
X105408000Y-55245000D03*
%TD*%
D16*
%TO.C,C5*%
X103731000Y-55245000D03*
X102771000Y-55245000D03*
%TD*%
%TO.C,C14*%
X109065000Y-52070000D03*
X108105000Y-52070000D03*
%TD*%
%TO.C,C2*%
X103731000Y-56261000D03*
X102771000Y-56261000D03*
%TD*%
D22*
%TO.C,U1*%
X103783001Y-65400300D03*
X104283000Y-65400300D03*
X104782999Y-65400300D03*
X105283000Y-65400300D03*
X105783000Y-65400300D03*
X106283001Y-65400300D03*
X106783000Y-65400300D03*
X107282999Y-65400300D03*
D23*
X107937300Y-64745999D03*
X107937300Y-64246000D03*
X107937300Y-63746001D03*
X107937300Y-63246000D03*
X107937300Y-62746000D03*
X107937300Y-62245999D03*
X107937300Y-61746000D03*
X107937300Y-61246001D03*
D22*
X107282999Y-60591700D03*
X106783000Y-60591700D03*
X106283001Y-60591700D03*
X105783000Y-60591700D03*
X105283000Y-60591700D03*
X104782999Y-60591700D03*
X104283000Y-60591700D03*
X103783001Y-60591700D03*
D23*
X103128700Y-61246001D03*
X103128700Y-61746000D03*
X103128700Y-62245999D03*
X103128700Y-62746000D03*
X103128700Y-63246000D03*
X103128700Y-63746001D03*
X103128700Y-64246000D03*
X103128700Y-64745999D03*
D24*
X105533000Y-62996000D03*
%TD*%
D21*
%TO.C,C10*%
X101727000Y-62456000D03*
X101727000Y-61496000D03*
%TD*%
D25*
%TO.C,R7*%
X111040000Y-67600000D03*
X112060000Y-67600000D03*
%TD*%
%TO.C,R6*%
X105408000Y-52197000D03*
X106428000Y-52197000D03*
%TD*%
D16*
%TO.C,C3*%
X103731000Y-53213000D03*
X102771000Y-53213000D03*
%TD*%
D15*
%TO.C,C17*%
X111885000Y-58956000D03*
X111885000Y-59916000D03*
%TD*%
%TO.C,C15*%
X102235000Y-69751000D03*
X102235000Y-70711000D03*
%TD*%
%TO.C,C18*%
X110744000Y-58956000D03*
X110744000Y-59916000D03*
%TD*%
M02*
