%TF.GenerationSoftware,KiCad,Pcbnew,9.0.7*%
%TF.CreationDate,2026-04-08T22:45:58-07:00*%
%TF.ProjectId,Xiao_iCE40LP384_Addon,5869616f-5f69-4434-9534-304c50333834,rev?*%
%TF.SameCoordinates,Original*%
%TF.FileFunction,Copper,L2,Inr*%
%TF.FilePolarity,Positive*%
%FSLAX46Y46*%
G04 Gerber Fmt 4.6, Leading zero omitted, Abs format (unit mm)*
G04 Created by KiCad (PCBNEW 9.0.7) date 2026-04-08 22:45:58*
%MOMM*%
%LPD*%
G01*
G04 APERTURE LIST*
%TA.AperFunction,ComponentPad*%
%ADD10R,1.700000X1.700000*%
%TD*%
%TA.AperFunction,ComponentPad*%
%ADD11C,1.700000*%
%TD*%
%TA.AperFunction,ViaPad*%
%ADD12C,0.600000*%
%TD*%
%TA.AperFunction,Conductor*%
%ADD13C,0.200000*%
%TD*%
G04 APERTURE END LIST*
D10*
%TO.N,/5V0_IN*%
%TO.C,J2*%
X114300000Y-53340000D03*
D11*
%TO.N,/GND*%
X114300000Y-55880000D03*
%TO.N,/3V3_IN*%
X114300000Y-58420000D03*
%TO.N,/D10_MISO*%
X114300000Y-60960000D03*
%TO.N,/D9_MOSI*%
X114300000Y-63500000D03*
%TO.N,/D8_SCK*%
X114300000Y-66040000D03*
%TO.N,/D7_TX*%
X114300000Y-68580000D03*
%TD*%
D10*
%TO.N,/D0*%
%TO.C,J1*%
X99060000Y-53340000D03*
D11*
%TO.N,/D1*%
X99060000Y-55880000D03*
%TO.N,/D2*%
X99060000Y-58420000D03*
%TO.N,/D3*%
X99060000Y-60960000D03*
%TO.N,/D4_SDA*%
X99060000Y-63500000D03*
%TO.N,/D5_SCL*%
X99060000Y-66040000D03*
%TO.N,/D6_RX*%
X99060000Y-68580000D03*
%TD*%
D12*
%TO.N,/GND*%
X98348800Y-54711600D03*
X98323400Y-62255400D03*
X98348800Y-59690000D03*
X114960400Y-62230000D03*
X114960400Y-64770000D03*
X113004600Y-68046600D03*
%TO.N,/5V0*%
X107950000Y-56642000D03*
X108585000Y-51435000D03*
X109982000Y-57531000D03*
X110998000Y-51435000D03*
X111897960Y-64636133D03*
X108356400Y-59070000D03*
X111887000Y-51435000D03*
X110236000Y-67691000D03*
X112649000Y-52070000D03*
X112649000Y-51435000D03*
%TO.N,/GND*%
X109931200Y-63754000D03*
X110337600Y-69469000D03*
X99187000Y-70485000D03*
X101981000Y-56261000D03*
X106451400Y-50977800D03*
X98958400Y-51358800D03*
X110744000Y-56261000D03*
X113182400Y-57099200D03*
X101295200Y-70713600D03*
X107442000Y-66497200D03*
X102743000Y-57150000D03*
X105533000Y-62996000D03*
X105283000Y-70358000D03*
X101981000Y-53213000D03*
X104038400Y-67589400D03*
X112650000Y-70700000D03*
X103124000Y-65455800D03*
X103378000Y-66548000D03*
X100380800Y-57150000D03*
X109626400Y-60502800D03*
X113131600Y-62179200D03*
X100962400Y-61496000D03*
X110744000Y-52832000D03*
X114427000Y-70358000D03*
X110490000Y-57023000D03*
X114528600Y-51587400D03*
X113284000Y-59690000D03*
X101981000Y-55245000D03*
X111810800Y-60858400D03*
X109347000Y-54737000D03*
X107188000Y-57556400D03*
X101396800Y-67767200D03*
X112776000Y-53848000D03*
X107950000Y-53467000D03*
X107188000Y-52451000D03*
X108915200Y-67564000D03*
X100279200Y-59690000D03*
X100380800Y-64770000D03*
X109982000Y-51435000D03*
X107950000Y-70358000D03*
X102743000Y-52324000D03*
%TO.N,/VCC*%
X100990400Y-60551000D03*
X104648000Y-56261000D03*
%TO.N,/VCC_SPI*%
X105664000Y-57556400D03*
X104648000Y-53213000D03*
%TO.N,/VCCIO*%
X101650800Y-64465200D03*
X101041200Y-62433200D03*
X101142800Y-58216800D03*
X106273600Y-58724800D03*
X102997000Y-67564000D03*
X104648000Y-54229000D03*
X108051600Y-66954400D03*
X105156000Y-67767200D03*
X106730800Y-69494400D03*
%TO.N,/VPP*%
X104648000Y-55245000D03*
X103581200Y-58318400D03*
%TO.N,/CRESET_B*%
X102209600Y-50919000D03*
X112014000Y-66649600D03*
%TO.N,/EN2*%
X110642400Y-60655200D03*
X111785400Y-57770000D03*
X112343664Y-63341234D03*
%TO.N,/EN1*%
X112826800Y-59070000D03*
X112877600Y-60985400D03*
X112903000Y-55854600D03*
%TO.N,/EN3*%
X112258319Y-64036015D03*
X108966000Y-59436000D03*
%TO.N,/D4_SDA*%
X105768935Y-59689838D03*
%TO.N,/D5_SCL*%
X106468891Y-59697909D03*
%TO.N,/D6_RX*%
X106781600Y-67919600D03*
%TO.N,/D8_SCK*%
X108915200Y-62077600D03*
%TO.N,/3V3_IN*%
X104698800Y-51689000D03*
%TO.N,/D7_TX*%
X106019600Y-67005200D03*
%TO.N,/CDONE*%
X113300000Y-67150000D03*
X100736400Y-53035200D03*
%TD*%
D13*
%TO.N,/GND*%
X102743000Y-52324000D02*
X102870000Y-52451000D01*
%TD*%
%TA.AperFunction,Conductor*%
%TO.N,/GND*%
G36*
X101677134Y-50639185D02*
G01*
X101722889Y-50691989D01*
X101732833Y-50761147D01*
X101729870Y-50775593D01*
X101709100Y-50853108D01*
X101709100Y-50984891D01*
X101743208Y-51112187D01*
X101746270Y-51117490D01*
X101809100Y-51226314D01*
X101902286Y-51319500D01*
X102016414Y-51385392D01*
X102143708Y-51419500D01*
X102143710Y-51419500D01*
X102275490Y-51419500D01*
X102275492Y-51419500D01*
X102402786Y-51385392D01*
X102516914Y-51319500D01*
X102610100Y-51226314D01*
X102675992Y-51112186D01*
X102710100Y-50984892D01*
X102710100Y-50853108D01*
X102689330Y-50775592D01*
X102690993Y-50705743D01*
X102730156Y-50647881D01*
X102794384Y-50620377D01*
X102809105Y-50619500D01*
X113625118Y-50619500D01*
X113660572Y-50619500D01*
X113669418Y-50619816D01*
X113898736Y-50636216D01*
X113916237Y-50638733D01*
X114136550Y-50686659D01*
X114153515Y-50691640D01*
X114364771Y-50770434D01*
X114380854Y-50777780D01*
X114578741Y-50885834D01*
X114593615Y-50895392D01*
X114713172Y-50984892D01*
X114774113Y-51030512D01*
X114787483Y-51042098D01*
X114946901Y-51201516D01*
X114958487Y-51214886D01*
X115083352Y-51381686D01*
X115093603Y-51395379D01*
X115103168Y-51410263D01*
X115211217Y-51608140D01*
X115218567Y-51624234D01*
X115297357Y-51835479D01*
X115302341Y-51852454D01*
X115350265Y-52072756D01*
X115352783Y-52090268D01*
X115358280Y-52167123D01*
X115343428Y-52235396D01*
X115294023Y-52284801D01*
X115225750Y-52299653D01*
X115210406Y-52297587D01*
X115169748Y-52289500D01*
X113430252Y-52289500D01*
X113430247Y-52289500D01*
X113371770Y-52301131D01*
X113371770Y-52301132D01*
X113321029Y-52335036D01*
X113254352Y-52355913D01*
X113186972Y-52337428D01*
X113140282Y-52285449D01*
X113129106Y-52216479D01*
X113132362Y-52199850D01*
X113149500Y-52135892D01*
X113149500Y-52004108D01*
X113115392Y-51876814D01*
X113079414Y-51814499D01*
X113062942Y-51746601D01*
X113079415Y-51690499D01*
X113093501Y-51666103D01*
X113115392Y-51628186D01*
X113149500Y-51500892D01*
X113149500Y-51369108D01*
X113115392Y-51241814D01*
X113049500Y-51127686D01*
X112956314Y-51034500D01*
X112870389Y-50984891D01*
X112842187Y-50968608D01*
X112778539Y-50951554D01*
X112714892Y-50934500D01*
X112583108Y-50934500D01*
X112455812Y-50968608D01*
X112376006Y-51014684D01*
X112341686Y-51034500D01*
X112341684Y-51034501D01*
X112334648Y-51038564D01*
X112333691Y-51036907D01*
X112278304Y-51058313D01*
X112209861Y-51044268D01*
X112197746Y-51036482D01*
X112194315Y-51034501D01*
X112194314Y-51034500D01*
X112108389Y-50984891D01*
X112080187Y-50968608D01*
X112016539Y-50951554D01*
X111952892Y-50934500D01*
X111821108Y-50934500D01*
X111693812Y-50968608D01*
X111579686Y-51034500D01*
X111579683Y-51034502D01*
X111530181Y-51084005D01*
X111468858Y-51117490D01*
X111399166Y-51112506D01*
X111354819Y-51084005D01*
X111305316Y-51034502D01*
X111305314Y-51034500D01*
X111219389Y-50984891D01*
X111191187Y-50968608D01*
X111127539Y-50951554D01*
X111063892Y-50934500D01*
X110932108Y-50934500D01*
X110804812Y-50968608D01*
X110690686Y-51034500D01*
X110690683Y-51034502D01*
X110597502Y-51127683D01*
X110597500Y-51127686D01*
X110531608Y-51241812D01*
X110510792Y-51319500D01*
X110497500Y-51369108D01*
X110497500Y-51500892D01*
X110514554Y-51564539D01*
X110531608Y-51628187D01*
X110553499Y-51666103D01*
X110597500Y-51742314D01*
X110690686Y-51835500D01*
X110804814Y-51901392D01*
X110932108Y-51935500D01*
X110932110Y-51935500D01*
X111063890Y-51935500D01*
X111063892Y-51935500D01*
X111191186Y-51901392D01*
X111305314Y-51835500D01*
X111354819Y-51785995D01*
X111416142Y-51752510D01*
X111485834Y-51757494D01*
X111530181Y-51785995D01*
X111579686Y-51835500D01*
X111693814Y-51901392D01*
X111821108Y-51935500D01*
X111821110Y-51935500D01*
X111952890Y-51935500D01*
X111952892Y-51935500D01*
X111992407Y-51924912D01*
X112062255Y-51926573D01*
X112120118Y-51965735D01*
X112147623Y-52029963D01*
X112148500Y-52044686D01*
X112148500Y-52135892D01*
X112153725Y-52155391D01*
X112182608Y-52263187D01*
X112204516Y-52301132D01*
X112248500Y-52377314D01*
X112341686Y-52470500D01*
X112455814Y-52536392D01*
X112583108Y-52570500D01*
X112583110Y-52570500D01*
X112714890Y-52570500D01*
X112714892Y-52570500D01*
X112842186Y-52536392D01*
X112956314Y-52470500D01*
X113037819Y-52388995D01*
X113099142Y-52355510D01*
X113168834Y-52360494D01*
X113224767Y-52402366D01*
X113249184Y-52467830D01*
X113249500Y-52476676D01*
X113249500Y-54209752D01*
X113261131Y-54268229D01*
X113261132Y-54268230D01*
X113305447Y-54334552D01*
X113371769Y-54378867D01*
X113371770Y-54378868D01*
X113430247Y-54390499D01*
X113430250Y-54390500D01*
X113733952Y-54390500D01*
X113800991Y-54410185D01*
X113846746Y-54462989D01*
X113856690Y-54532147D01*
X113827665Y-54595703D01*
X113785735Y-54625938D01*
X113786121Y-54626694D01*
X113592439Y-54725380D01*
X113538282Y-54764727D01*
X113538282Y-54764728D01*
X114170591Y-55397037D01*
X114107007Y-55414075D01*
X113992993Y-55479901D01*
X113899901Y-55572993D01*
X113834075Y-55687007D01*
X113817037Y-55750591D01*
X113184728Y-55118282D01*
X113184727Y-55118282D01*
X113145380Y-55172439D01*
X113087317Y-55286395D01*
X113039342Y-55337191D01*
X112976832Y-55354100D01*
X112837108Y-55354100D01*
X112709812Y-55388208D01*
X112595686Y-55454100D01*
X112595683Y-55454102D01*
X112502502Y-55547283D01*
X112502500Y-55547286D01*
X112436608Y-55661412D01*
X112414077Y-55745500D01*
X112402500Y-55788708D01*
X112402500Y-55920492D01*
X112411394Y-55953686D01*
X112436608Y-56047787D01*
X112448170Y-56067812D01*
X112502500Y-56161914D01*
X112595686Y-56255100D01*
X112709814Y-56320992D01*
X112837108Y-56355100D01*
X112837110Y-56355100D01*
X112950948Y-56355100D01*
X113017987Y-56374785D01*
X113061433Y-56422805D01*
X113145375Y-56587550D01*
X113184728Y-56641716D01*
X113817037Y-56009408D01*
X113834075Y-56072993D01*
X113899901Y-56187007D01*
X113992993Y-56280099D01*
X114107007Y-56345925D01*
X114170589Y-56362962D01*
X113538282Y-56995269D01*
X113538282Y-56995270D01*
X113592449Y-57034624D01*
X113781782Y-57131095D01*
X113957973Y-57188343D01*
X114015648Y-57227780D01*
X114042847Y-57292139D01*
X114030932Y-57360985D01*
X113983688Y-57412461D01*
X113967108Y-57420835D01*
X113802403Y-57489057D01*
X113630342Y-57604024D01*
X113484024Y-57750342D01*
X113369058Y-57922403D01*
X113289870Y-58113579D01*
X113289868Y-58113587D01*
X113249500Y-58316530D01*
X113249500Y-58521343D01*
X113229815Y-58588382D01*
X113177011Y-58634137D01*
X113107853Y-58644081D01*
X113063500Y-58628730D01*
X113019989Y-58603609D01*
X113019986Y-58603608D01*
X112892692Y-58569500D01*
X112760908Y-58569500D01*
X112633612Y-58603608D01*
X112519486Y-58669500D01*
X112519483Y-58669502D01*
X112426302Y-58762683D01*
X112426300Y-58762686D01*
X112360408Y-58876812D01*
X112326300Y-59004108D01*
X112326300Y-59135891D01*
X112360408Y-59263187D01*
X112380168Y-59297411D01*
X112426300Y-59377314D01*
X112519486Y-59470500D01*
X112633614Y-59536392D01*
X112760908Y-59570500D01*
X112760910Y-59570500D01*
X112892690Y-59570500D01*
X112892692Y-59570500D01*
X113019986Y-59536392D01*
X113134114Y-59470500D01*
X113227300Y-59377314D01*
X113293192Y-59263186D01*
X113314603Y-59183276D01*
X113350966Y-59123619D01*
X113413813Y-59093089D01*
X113483189Y-59101383D01*
X113522058Y-59127691D01*
X113630342Y-59235975D01*
X113630345Y-59235977D01*
X113802402Y-59350941D01*
X113993580Y-59430130D01*
X114196520Y-59470497D01*
X114196530Y-59470499D01*
X114196534Y-59470500D01*
X114196535Y-59470500D01*
X114403466Y-59470500D01*
X114403467Y-59470499D01*
X114606420Y-59430130D01*
X114797598Y-59350941D01*
X114969655Y-59235977D01*
X115115977Y-59089655D01*
X115142397Y-59050113D01*
X115196009Y-59005309D01*
X115265334Y-58996601D01*
X115328362Y-59026755D01*
X115365082Y-59086198D01*
X115369500Y-59119004D01*
X115369500Y-60260995D01*
X115349815Y-60328034D01*
X115297011Y-60373789D01*
X115227853Y-60383733D01*
X115164297Y-60354708D01*
X115142398Y-60329886D01*
X115115977Y-60290345D01*
X115115974Y-60290341D01*
X114969657Y-60144024D01*
X114829687Y-60050500D01*
X114797598Y-60029059D01*
X114606420Y-59949870D01*
X114606412Y-59949868D01*
X114403469Y-59909500D01*
X114403465Y-59909500D01*
X114196535Y-59909500D01*
X114196530Y-59909500D01*
X113993587Y-59949868D01*
X113993579Y-59949870D01*
X113802403Y-60029058D01*
X113630342Y-60144024D01*
X113484024Y-60290342D01*
X113369057Y-60462405D01*
X113346680Y-60516426D01*
X113302838Y-60570828D01*
X113236544Y-60592892D01*
X113170120Y-60576358D01*
X113070789Y-60519009D01*
X113070786Y-60519008D01*
X112943492Y-60484900D01*
X112811708Y-60484900D01*
X112684412Y-60519008D01*
X112570286Y-60584900D01*
X112570283Y-60584902D01*
X112477102Y-60678083D01*
X112477100Y-60678086D01*
X112411208Y-60792212D01*
X112393496Y-60858316D01*
X112377100Y-60919508D01*
X112377100Y-61051292D01*
X112378281Y-61055699D01*
X112411208Y-61178587D01*
X112444154Y-61235650D01*
X112477100Y-61292714D01*
X112570286Y-61385900D01*
X112669121Y-61442963D01*
X112684410Y-61451790D01*
X112684414Y-61451792D01*
X112811708Y-61485900D01*
X112811710Y-61485900D01*
X112943490Y-61485900D01*
X112943492Y-61485900D01*
X113070786Y-61451792D01*
X113184914Y-61385900D01*
X113184916Y-61385897D01*
X113187100Y-61384637D01*
X113255000Y-61368163D01*
X113321027Y-61391015D01*
X113363661Y-61444568D01*
X113366654Y-61451792D01*
X113369059Y-61457598D01*
X113387969Y-61485899D01*
X113484024Y-61629657D01*
X113630342Y-61775975D01*
X113630345Y-61775977D01*
X113802402Y-61890941D01*
X113993580Y-61970130D01*
X114196530Y-62010499D01*
X114196534Y-62010500D01*
X114196535Y-62010500D01*
X114403466Y-62010500D01*
X114403467Y-62010499D01*
X114606420Y-61970130D01*
X114797598Y-61890941D01*
X114969655Y-61775977D01*
X115115977Y-61629655D01*
X115142397Y-61590113D01*
X115196009Y-61545309D01*
X115265334Y-61536601D01*
X115328362Y-61566755D01*
X115365082Y-61626198D01*
X115369500Y-61659004D01*
X115369500Y-62800995D01*
X115349815Y-62868034D01*
X115297011Y-62913789D01*
X115227853Y-62923733D01*
X115164297Y-62894708D01*
X115142398Y-62869886D01*
X115115977Y-62830345D01*
X115115974Y-62830341D01*
X114969657Y-62684024D01*
X114883395Y-62626386D01*
X114797598Y-62569059D01*
X114737081Y-62543992D01*
X114606420Y-62489870D01*
X114606412Y-62489868D01*
X114403469Y-62449500D01*
X114403465Y-62449500D01*
X114196535Y-62449500D01*
X114196530Y-62449500D01*
X113993587Y-62489868D01*
X113993579Y-62489870D01*
X113802403Y-62569058D01*
X113630342Y-62684024D01*
X113484024Y-62830342D01*
X113369058Y-63002403D01*
X113289870Y-63193579D01*
X113289868Y-63193587D01*
X113249500Y-63396530D01*
X113249500Y-63603469D01*
X113289868Y-63806412D01*
X113289870Y-63806420D01*
X113369059Y-63997598D01*
X113413895Y-64064700D01*
X113484024Y-64169657D01*
X113630342Y-64315975D01*
X113630345Y-64315977D01*
X113802402Y-64430941D01*
X113993580Y-64510130D01*
X114196530Y-64550499D01*
X114196534Y-64550500D01*
X114196535Y-64550500D01*
X114403466Y-64550500D01*
X114403467Y-64550499D01*
X114606420Y-64510130D01*
X114797598Y-64430941D01*
X114969655Y-64315977D01*
X115115977Y-64169655D01*
X115142397Y-64130113D01*
X115196009Y-64085309D01*
X115265334Y-64076601D01*
X115328362Y-64106755D01*
X115365082Y-64166198D01*
X115369500Y-64199004D01*
X115369500Y-65340995D01*
X115349815Y-65408034D01*
X115297011Y-65453789D01*
X115227853Y-65463733D01*
X115164297Y-65434708D01*
X115142398Y-65409886D01*
X115115977Y-65370345D01*
X115115974Y-65370341D01*
X114969657Y-65224024D01*
X114883626Y-65166541D01*
X114797598Y-65109059D01*
X114781821Y-65102524D01*
X114606420Y-65029870D01*
X114606412Y-65029868D01*
X114403469Y-64989500D01*
X114403465Y-64989500D01*
X114196535Y-64989500D01*
X114196530Y-64989500D01*
X113993587Y-65029868D01*
X113993579Y-65029870D01*
X113802403Y-65109058D01*
X113630342Y-65224024D01*
X113484024Y-65370342D01*
X113369058Y-65542403D01*
X113289870Y-65733579D01*
X113289868Y-65733587D01*
X113249500Y-65936530D01*
X113249500Y-66143469D01*
X113289868Y-66346412D01*
X113289870Y-66346420D01*
X113344392Y-66478047D01*
X113351861Y-66547517D01*
X113320586Y-66609996D01*
X113260497Y-66645648D01*
X113242104Y-66647958D01*
X113242168Y-66648439D01*
X113234108Y-66649500D01*
X113106812Y-66683608D01*
X112992686Y-66749500D01*
X112992683Y-66749502D01*
X112899502Y-66842683D01*
X112899500Y-66842686D01*
X112833608Y-66956812D01*
X112808604Y-67050130D01*
X112799500Y-67084108D01*
X112799500Y-67215892D01*
X112805850Y-67239590D01*
X112833608Y-67343187D01*
X112840371Y-67354900D01*
X112899500Y-67457314D01*
X112992686Y-67550500D01*
X113106814Y-67616392D01*
X113234108Y-67650500D01*
X113234110Y-67650500D01*
X113365889Y-67650500D01*
X113365892Y-67650500D01*
X113435215Y-67631925D01*
X113505059Y-67633588D01*
X113562922Y-67672750D01*
X113590427Y-67736978D01*
X113578841Y-67805880D01*
X113554986Y-67839381D01*
X113484023Y-67910344D01*
X113369058Y-68082403D01*
X113289870Y-68273579D01*
X113289868Y-68273587D01*
X113249500Y-68476530D01*
X113249500Y-68683469D01*
X113289868Y-68886412D01*
X113289870Y-68886420D01*
X113369058Y-69077596D01*
X113484024Y-69249657D01*
X113630342Y-69395975D01*
X113630345Y-69395977D01*
X113802402Y-69510941D01*
X113993580Y-69590130D01*
X114196530Y-69630499D01*
X114196534Y-69630500D01*
X114196535Y-69630500D01*
X114403466Y-69630500D01*
X114403467Y-69630499D01*
X114606420Y-69590130D01*
X114797598Y-69510941D01*
X114969655Y-69395977D01*
X115115977Y-69249655D01*
X115142397Y-69210113D01*
X115168414Y-69188370D01*
X115193989Y-69166210D01*
X115195126Y-69166046D01*
X115196009Y-69165309D01*
X115229601Y-69161089D01*
X115263147Y-69156266D01*
X115264194Y-69156744D01*
X115265334Y-69156601D01*
X115295868Y-69171209D01*
X115326703Y-69185291D01*
X115327325Y-69186258D01*
X115328362Y-69186755D01*
X115346163Y-69215572D01*
X115364477Y-69244069D01*
X115364692Y-69245567D01*
X115365082Y-69246198D01*
X115369500Y-69279004D01*
X115369500Y-69464572D01*
X115369184Y-69473418D01*
X115352783Y-69702731D01*
X115350265Y-69720243D01*
X115302341Y-69940545D01*
X115297357Y-69957520D01*
X115218567Y-70168765D01*
X115211217Y-70184859D01*
X115103168Y-70382736D01*
X115093603Y-70397620D01*
X114958487Y-70578113D01*
X114946901Y-70591483D01*
X114787483Y-70750901D01*
X114774113Y-70762487D01*
X114593620Y-70897603D01*
X114578736Y-70907168D01*
X114380859Y-71015217D01*
X114364765Y-71022567D01*
X114153520Y-71101357D01*
X114136545Y-71106341D01*
X113916243Y-71154265D01*
X113898731Y-71156783D01*
X113669418Y-71173184D01*
X113660572Y-71173500D01*
X99699428Y-71173500D01*
X99690582Y-71173184D01*
X99461268Y-71156783D01*
X99443756Y-71154265D01*
X99223454Y-71106341D01*
X99206479Y-71101357D01*
X98995234Y-71022567D01*
X98979140Y-71015217D01*
X98781263Y-70907168D01*
X98766379Y-70897603D01*
X98716457Y-70860232D01*
X98585886Y-70762487D01*
X98572516Y-70750901D01*
X98413098Y-70591483D01*
X98401512Y-70578113D01*
X98266392Y-70397615D01*
X98256834Y-70382741D01*
X98148780Y-70184854D01*
X98141434Y-70168771D01*
X98062640Y-69957515D01*
X98057658Y-69940545D01*
X98009733Y-69720237D01*
X98007216Y-69702731D01*
X97990816Y-69473418D01*
X97990500Y-69464572D01*
X97990500Y-69279004D01*
X98010185Y-69211965D01*
X98062989Y-69166210D01*
X98132147Y-69156266D01*
X98195703Y-69185291D01*
X98217603Y-69210114D01*
X98244024Y-69249657D01*
X98390342Y-69395975D01*
X98390345Y-69395977D01*
X98562402Y-69510941D01*
X98753580Y-69590130D01*
X98956530Y-69630499D01*
X98956534Y-69630500D01*
X98956535Y-69630500D01*
X99163466Y-69630500D01*
X99163467Y-69630499D01*
X99366420Y-69590130D01*
X99557598Y-69510941D01*
X99680969Y-69428508D01*
X106230300Y-69428508D01*
X106230300Y-69560291D01*
X106264408Y-69687587D01*
X106297354Y-69744650D01*
X106330300Y-69801714D01*
X106423486Y-69894900D01*
X106537614Y-69960792D01*
X106664908Y-69994900D01*
X106664910Y-69994900D01*
X106796690Y-69994900D01*
X106796692Y-69994900D01*
X106923986Y-69960792D01*
X107038114Y-69894900D01*
X107131300Y-69801714D01*
X107197192Y-69687586D01*
X107231300Y-69560292D01*
X107231300Y-69428508D01*
X107197192Y-69301214D01*
X107131300Y-69187086D01*
X107038114Y-69093900D01*
X106981050Y-69060954D01*
X106923987Y-69028008D01*
X106860339Y-69010954D01*
X106796692Y-68993900D01*
X106664908Y-68993900D01*
X106537612Y-69028008D01*
X106423486Y-69093900D01*
X106423483Y-69093902D01*
X106330302Y-69187083D01*
X106330300Y-69187086D01*
X106264408Y-69301212D01*
X106230300Y-69428508D01*
X99680969Y-69428508D01*
X99729655Y-69395977D01*
X99729658Y-69395974D01*
X99792933Y-69332700D01*
X99875974Y-69249658D01*
X99875975Y-69249657D01*
X99875977Y-69249655D01*
X99990941Y-69077598D01*
X100070130Y-68886420D01*
X100110500Y-68683465D01*
X100110500Y-68476535D01*
X100070130Y-68273580D01*
X99990941Y-68082402D01*
X99875977Y-67910345D01*
X99875976Y-67910344D01*
X99875975Y-67910342D01*
X99729657Y-67764024D01*
X99575599Y-67661087D01*
X99557598Y-67649059D01*
X99366420Y-67569870D01*
X99366412Y-67569868D01*
X99163469Y-67529500D01*
X99163465Y-67529500D01*
X98956535Y-67529500D01*
X98956530Y-67529500D01*
X98753587Y-67569868D01*
X98753579Y-67569870D01*
X98562403Y-67649058D01*
X98390342Y-67764024D01*
X98244025Y-67910341D01*
X98244022Y-67910345D01*
X98217602Y-67949886D01*
X98163990Y-67994691D01*
X98094665Y-68003398D01*
X98031637Y-67973243D01*
X97994918Y-67913800D01*
X97990500Y-67880995D01*
X97990500Y-67498108D01*
X102496500Y-67498108D01*
X102496500Y-67629892D01*
X102504858Y-67661086D01*
X102530608Y-67757187D01*
X102563554Y-67814250D01*
X102596500Y-67871314D01*
X102689686Y-67964500D01*
X102803814Y-68030392D01*
X102931108Y-68064500D01*
X102931110Y-68064500D01*
X103062890Y-68064500D01*
X103062892Y-68064500D01*
X103190186Y-68030392D01*
X103304314Y-67964500D01*
X103397500Y-67871314D01*
X103463392Y-67757186D01*
X103478364Y-67701308D01*
X104655500Y-67701308D01*
X104655500Y-67833092D01*
X104669191Y-67884187D01*
X104689608Y-67960387D01*
X104704102Y-67985490D01*
X104755500Y-68074514D01*
X104848686Y-68167700D01*
X104962814Y-68233592D01*
X105090108Y-68267700D01*
X105090110Y-68267700D01*
X105221890Y-68267700D01*
X105221892Y-68267700D01*
X105349186Y-68233592D01*
X105463314Y-68167700D01*
X105556500Y-68074514D01*
X105622392Y-67960386D01*
X105656500Y-67833092D01*
X105656500Y-67701308D01*
X105630067Y-67602657D01*
X105631730Y-67532809D01*
X105670893Y-67474947D01*
X105735121Y-67447443D01*
X105804023Y-67459030D01*
X105811844Y-67463180D01*
X105826411Y-67471591D01*
X105826413Y-67471591D01*
X105826414Y-67471592D01*
X105953708Y-67505700D01*
X105953710Y-67505700D01*
X106085490Y-67505700D01*
X106085492Y-67505700D01*
X106212786Y-67471592D01*
X106212787Y-67471591D01*
X106218838Y-67469970D01*
X106288688Y-67471633D01*
X106346550Y-67510796D01*
X106374054Y-67575024D01*
X106362467Y-67643926D01*
X106358318Y-67651745D01*
X106315209Y-67726410D01*
X106315209Y-67726411D01*
X106315208Y-67726413D01*
X106315208Y-67726414D01*
X106281100Y-67853708D01*
X106281100Y-67985492D01*
X106284536Y-67998314D01*
X106315208Y-68112787D01*
X106340961Y-68157391D01*
X106381100Y-68226914D01*
X106474286Y-68320100D01*
X106588414Y-68385992D01*
X106715708Y-68420100D01*
X106715710Y-68420100D01*
X106847490Y-68420100D01*
X106847492Y-68420100D01*
X106974786Y-68385992D01*
X107088914Y-68320100D01*
X107182100Y-68226914D01*
X107247992Y-68112786D01*
X107282100Y-67985492D01*
X107282100Y-67853708D01*
X107247992Y-67726414D01*
X107247990Y-67726410D01*
X107220608Y-67678983D01*
X107220607Y-67678982D01*
X107210275Y-67661087D01*
X107189503Y-67625108D01*
X109735500Y-67625108D01*
X109735500Y-67756891D01*
X109769608Y-67884187D01*
X109802554Y-67941250D01*
X109835500Y-67998314D01*
X109928686Y-68091500D01*
X110042814Y-68157392D01*
X110170108Y-68191500D01*
X110170110Y-68191500D01*
X110301890Y-68191500D01*
X110301892Y-68191500D01*
X110429186Y-68157392D01*
X110543314Y-68091500D01*
X110636500Y-67998314D01*
X110702392Y-67884186D01*
X110736500Y-67756892D01*
X110736500Y-67625108D01*
X110702392Y-67497814D01*
X110636500Y-67383686D01*
X110543314Y-67290500D01*
X110455136Y-67239590D01*
X110429187Y-67224608D01*
X110365539Y-67207554D01*
X110301892Y-67190500D01*
X110170108Y-67190500D01*
X110042812Y-67224608D01*
X109928686Y-67290500D01*
X109928683Y-67290502D01*
X109835502Y-67383683D01*
X109835500Y-67383686D01*
X109769608Y-67497812D01*
X109735500Y-67625108D01*
X107189503Y-67625108D01*
X107182100Y-67612286D01*
X107088914Y-67519100D01*
X107006628Y-67471592D01*
X106974787Y-67453208D01*
X106911139Y-67436154D01*
X106847492Y-67419100D01*
X106715708Y-67419100D01*
X106715706Y-67419100D01*
X106582360Y-67454829D01*
X106512510Y-67453166D01*
X106454648Y-67414003D01*
X106427145Y-67349774D01*
X106438732Y-67280872D01*
X106442865Y-67273083D01*
X106485992Y-67198386D01*
X106520100Y-67071092D01*
X106520100Y-66939308D01*
X106506488Y-66888508D01*
X107551100Y-66888508D01*
X107551100Y-67020292D01*
X107564711Y-67071090D01*
X107585208Y-67147587D01*
X107586659Y-67150100D01*
X107651100Y-67261714D01*
X107744286Y-67354900D01*
X107858414Y-67420792D01*
X107985708Y-67454900D01*
X107985710Y-67454900D01*
X108117490Y-67454900D01*
X108117492Y-67454900D01*
X108244786Y-67420792D01*
X108358914Y-67354900D01*
X108452100Y-67261714D01*
X108517992Y-67147586D01*
X108552100Y-67020292D01*
X108552100Y-66888508D01*
X108517992Y-66761214D01*
X108452100Y-66647086D01*
X108388722Y-66583708D01*
X111513500Y-66583708D01*
X111513500Y-66715491D01*
X111547608Y-66842787D01*
X111574006Y-66888508D01*
X111613500Y-66956914D01*
X111706686Y-67050100D01*
X111820814Y-67115992D01*
X111948108Y-67150100D01*
X111948110Y-67150100D01*
X112079890Y-67150100D01*
X112079892Y-67150100D01*
X112207186Y-67115992D01*
X112321314Y-67050100D01*
X112414500Y-66956914D01*
X112480392Y-66842786D01*
X112514500Y-66715492D01*
X112514500Y-66583708D01*
X112480392Y-66456414D01*
X112414500Y-66342286D01*
X112321314Y-66249100D01*
X112264250Y-66216154D01*
X112207187Y-66183208D01*
X112143539Y-66166154D01*
X112079892Y-66149100D01*
X111948108Y-66149100D01*
X111820812Y-66183208D01*
X111706686Y-66249100D01*
X111706683Y-66249102D01*
X111613502Y-66342283D01*
X111613500Y-66342286D01*
X111547608Y-66456412D01*
X111513500Y-66583708D01*
X108388722Y-66583708D01*
X108358914Y-66553900D01*
X108301850Y-66520954D01*
X108244787Y-66488008D01*
X108126874Y-66456414D01*
X108117492Y-66453900D01*
X107985708Y-66453900D01*
X107858412Y-66488008D01*
X107744286Y-66553900D01*
X107744283Y-66553902D01*
X107651102Y-66647083D01*
X107651100Y-66647086D01*
X107585208Y-66761212D01*
X107551100Y-66888508D01*
X106506488Y-66888508D01*
X106485992Y-66812014D01*
X106420100Y-66697886D01*
X106326914Y-66604700D01*
X106238930Y-66553902D01*
X106212787Y-66538808D01*
X106149139Y-66521754D01*
X106085492Y-66504700D01*
X105953708Y-66504700D01*
X105826412Y-66538808D01*
X105712286Y-66604700D01*
X105712283Y-66604702D01*
X105619102Y-66697883D01*
X105619100Y-66697886D01*
X105553208Y-66812012D01*
X105519100Y-66939308D01*
X105519100Y-67071093D01*
X105545532Y-67169741D01*
X105543869Y-67239590D01*
X105504706Y-67297453D01*
X105440477Y-67324956D01*
X105371575Y-67313369D01*
X105363757Y-67309220D01*
X105349189Y-67300809D01*
X105349186Y-67300808D01*
X105221892Y-67266700D01*
X105090108Y-67266700D01*
X104962812Y-67300808D01*
X104848686Y-67366700D01*
X104848683Y-67366702D01*
X104755502Y-67459883D01*
X104755500Y-67459886D01*
X104689608Y-67574012D01*
X104674091Y-67631925D01*
X104655500Y-67701308D01*
X103478364Y-67701308D01*
X103497500Y-67629892D01*
X103497500Y-67498108D01*
X103463392Y-67370814D01*
X103397500Y-67256686D01*
X103304314Y-67163500D01*
X103222028Y-67115992D01*
X103190187Y-67097608D01*
X103126539Y-67080554D01*
X103062892Y-67063500D01*
X102931108Y-67063500D01*
X102803812Y-67097608D01*
X102689686Y-67163500D01*
X102689683Y-67163502D01*
X102596502Y-67256683D01*
X102596500Y-67256686D01*
X102530608Y-67370812D01*
X102507430Y-67457316D01*
X102496500Y-67498108D01*
X97990500Y-67498108D01*
X97990500Y-66739004D01*
X98010185Y-66671965D01*
X98062989Y-66626210D01*
X98132147Y-66616266D01*
X98195703Y-66645291D01*
X98217601Y-66670112D01*
X98226619Y-66683608D01*
X98244024Y-66709657D01*
X98390342Y-66855975D01*
X98390345Y-66855977D01*
X98562402Y-66970941D01*
X98753580Y-67050130D01*
X98924400Y-67084108D01*
X98956530Y-67090499D01*
X98956534Y-67090500D01*
X98956535Y-67090500D01*
X99163466Y-67090500D01*
X99163467Y-67090499D01*
X99366420Y-67050130D01*
X99557598Y-66970941D01*
X99729655Y-66855977D01*
X99875977Y-66709655D01*
X99990941Y-66537598D01*
X100070130Y-66346420D01*
X100110500Y-66143465D01*
X100110500Y-65936535D01*
X100070130Y-65733580D01*
X99990941Y-65542402D01*
X99875977Y-65370345D01*
X99875975Y-65370342D01*
X99729657Y-65224024D01*
X99643626Y-65166541D01*
X99557598Y-65109059D01*
X99541821Y-65102524D01*
X99366420Y-65029870D01*
X99366412Y-65029868D01*
X99163469Y-64989500D01*
X99163465Y-64989500D01*
X98956535Y-64989500D01*
X98956530Y-64989500D01*
X98753587Y-65029868D01*
X98753579Y-65029870D01*
X98562403Y-65109058D01*
X98390342Y-65224024D01*
X98244025Y-65370341D01*
X98244022Y-65370345D01*
X98217602Y-65409886D01*
X98163990Y-65454691D01*
X98094665Y-65463398D01*
X98031637Y-65433243D01*
X97994918Y-65373800D01*
X97990500Y-65340995D01*
X97990500Y-64199004D01*
X98010185Y-64131965D01*
X98062989Y-64086210D01*
X98132147Y-64076266D01*
X98195703Y-64105291D01*
X98217603Y-64130114D01*
X98244024Y-64169657D01*
X98390342Y-64315975D01*
X98390345Y-64315977D01*
X98562402Y-64430941D01*
X98753580Y-64510130D01*
X98956530Y-64550499D01*
X98956534Y-64550500D01*
X98956535Y-64550500D01*
X99163466Y-64550500D01*
X99163467Y-64550499D01*
X99366420Y-64510130D01*
X99557598Y-64430941D01*
X99604940Y-64399308D01*
X101150300Y-64399308D01*
X101150300Y-64531091D01*
X101184408Y-64658387D01*
X101209602Y-64702023D01*
X101250300Y-64772514D01*
X101343486Y-64865700D01*
X101457614Y-64931592D01*
X101584908Y-64965700D01*
X101584910Y-64965700D01*
X101716690Y-64965700D01*
X101716692Y-64965700D01*
X101843986Y-64931592D01*
X101958114Y-64865700D01*
X102051300Y-64772514D01*
X102117192Y-64658386D01*
X102140810Y-64570241D01*
X111397460Y-64570241D01*
X111397460Y-64702024D01*
X111431568Y-64829320D01*
X111464514Y-64886383D01*
X111497460Y-64943447D01*
X111590646Y-65036633D01*
X111704774Y-65102525D01*
X111832068Y-65136633D01*
X111832070Y-65136633D01*
X111963850Y-65136633D01*
X111963852Y-65136633D01*
X112091146Y-65102525D01*
X112205274Y-65036633D01*
X112298460Y-64943447D01*
X112364352Y-64829319D01*
X112398460Y-64702025D01*
X112398460Y-64604623D01*
X112418145Y-64537584D01*
X112460457Y-64497238D01*
X112565633Y-64436515D01*
X112658819Y-64343329D01*
X112724711Y-64229201D01*
X112758819Y-64101907D01*
X112758819Y-63970123D01*
X112724711Y-63842829D01*
X112724708Y-63842825D01*
X112724708Y-63842822D01*
X112708294Y-63814393D01*
X112691821Y-63746493D01*
X112714673Y-63680466D01*
X112728002Y-63664710D01*
X112744161Y-63648551D01*
X112744161Y-63648550D01*
X112744164Y-63648548D01*
X112810056Y-63534420D01*
X112844164Y-63407126D01*
X112844164Y-63275342D01*
X112810056Y-63148048D01*
X112744164Y-63033920D01*
X112650978Y-62940734D01*
X112579718Y-62899592D01*
X112536851Y-62874842D01*
X112473203Y-62857788D01*
X112409556Y-62840734D01*
X112277772Y-62840734D01*
X112150476Y-62874842D01*
X112036350Y-62940734D01*
X112036347Y-62940736D01*
X111943166Y-63033917D01*
X111943164Y-63033920D01*
X111877272Y-63148046D01*
X111843164Y-63275342D01*
X111843164Y-63407125D01*
X111877272Y-63534419D01*
X111877272Y-63534420D01*
X111893689Y-63562855D01*
X111910161Y-63630755D01*
X111887308Y-63696782D01*
X111873986Y-63712531D01*
X111857823Y-63728694D01*
X111791927Y-63842828D01*
X111757819Y-63970123D01*
X111757819Y-64067523D01*
X111738134Y-64134562D01*
X111695820Y-64174910D01*
X111590646Y-64235633D01*
X111590643Y-64235635D01*
X111497462Y-64328816D01*
X111497460Y-64328819D01*
X111431568Y-64442945D01*
X111397460Y-64570241D01*
X102140810Y-64570241D01*
X102151300Y-64531092D01*
X102151300Y-64399308D01*
X102117192Y-64272014D01*
X102051300Y-64157886D01*
X101958114Y-64064700D01*
X101901050Y-64031754D01*
X101843987Y-63998808D01*
X101780339Y-63981754D01*
X101716692Y-63964700D01*
X101584908Y-63964700D01*
X101457612Y-63998808D01*
X101343486Y-64064700D01*
X101343483Y-64064702D01*
X101250302Y-64157883D01*
X101250300Y-64157886D01*
X101184408Y-64272012D01*
X101150300Y-64399308D01*
X99604940Y-64399308D01*
X99729655Y-64315977D01*
X99729658Y-64315974D01*
X99742133Y-64303500D01*
X99875974Y-64169658D01*
X99875975Y-64169657D01*
X99875977Y-64169655D01*
X99990941Y-63997598D01*
X100070130Y-63806420D01*
X100110500Y-63603465D01*
X100110500Y-63396535D01*
X100070130Y-63193580D01*
X99990941Y-63002402D01*
X99875977Y-62830345D01*
X99875975Y-62830342D01*
X99729657Y-62684024D01*
X99643395Y-62626386D01*
X99557598Y-62569059D01*
X99497081Y-62543992D01*
X99366420Y-62489870D01*
X99366412Y-62489868D01*
X99320814Y-62480798D01*
X99163469Y-62449500D01*
X99163465Y-62449500D01*
X98956535Y-62449500D01*
X98956530Y-62449500D01*
X98753587Y-62489868D01*
X98753579Y-62489870D01*
X98562403Y-62569058D01*
X98390342Y-62684024D01*
X98244025Y-62830341D01*
X98244022Y-62830345D01*
X98217602Y-62869886D01*
X98163990Y-62914691D01*
X98094665Y-62923398D01*
X98031637Y-62893243D01*
X97994918Y-62833800D01*
X97990500Y-62800995D01*
X97990500Y-62367308D01*
X100540700Y-62367308D01*
X100540700Y-62499091D01*
X100574808Y-62626387D01*
X100607754Y-62683450D01*
X100640700Y-62740514D01*
X100733886Y-62833700D01*
X100848014Y-62899592D01*
X100975308Y-62933700D01*
X100975310Y-62933700D01*
X101107090Y-62933700D01*
X101107092Y-62933700D01*
X101234386Y-62899592D01*
X101348514Y-62833700D01*
X101441700Y-62740514D01*
X101507592Y-62626386D01*
X101541700Y-62499092D01*
X101541700Y-62367308D01*
X101507592Y-62240014D01*
X101441700Y-62125886D01*
X101348514Y-62032700D01*
X101312155Y-62011708D01*
X108414700Y-62011708D01*
X108414700Y-62143491D01*
X108448808Y-62270787D01*
X108481754Y-62327850D01*
X108514700Y-62384914D01*
X108607886Y-62478100D01*
X108722014Y-62543992D01*
X108849308Y-62578100D01*
X108849310Y-62578100D01*
X108981090Y-62578100D01*
X108981092Y-62578100D01*
X109108386Y-62543992D01*
X109222514Y-62478100D01*
X109315700Y-62384914D01*
X109381592Y-62270786D01*
X109415700Y-62143492D01*
X109415700Y-62011708D01*
X109381592Y-61884414D01*
X109315700Y-61770286D01*
X109222514Y-61677100D01*
X109140337Y-61629655D01*
X109108387Y-61611208D01*
X109029661Y-61590114D01*
X108981092Y-61577100D01*
X108849308Y-61577100D01*
X108722012Y-61611208D01*
X108607886Y-61677100D01*
X108607883Y-61677102D01*
X108514702Y-61770283D01*
X108514700Y-61770286D01*
X108448808Y-61884412D01*
X108414700Y-62011708D01*
X101312155Y-62011708D01*
X101240142Y-61970131D01*
X101234387Y-61966808D01*
X101170739Y-61949754D01*
X101107092Y-61932700D01*
X100975308Y-61932700D01*
X100848012Y-61966808D01*
X100733886Y-62032700D01*
X100733883Y-62032702D01*
X100640702Y-62125883D01*
X100640700Y-62125886D01*
X100574808Y-62240012D01*
X100540700Y-62367308D01*
X97990500Y-62367308D01*
X97990500Y-61659004D01*
X98010185Y-61591965D01*
X98062989Y-61546210D01*
X98132147Y-61536266D01*
X98195703Y-61565291D01*
X98217603Y-61590114D01*
X98244024Y-61629657D01*
X98390342Y-61775975D01*
X98390345Y-61775977D01*
X98562402Y-61890941D01*
X98753580Y-61970130D01*
X98956530Y-62010499D01*
X98956534Y-62010500D01*
X98956535Y-62010500D01*
X99163466Y-62010500D01*
X99163467Y-62010499D01*
X99366420Y-61970130D01*
X99557598Y-61890941D01*
X99729655Y-61775977D01*
X99875977Y-61629655D01*
X99990941Y-61457598D01*
X100070130Y-61266420D01*
X100110500Y-61063465D01*
X100110500Y-60856535D01*
X100070130Y-60653580D01*
X100000346Y-60485108D01*
X100489900Y-60485108D01*
X100489900Y-60616892D01*
X100499732Y-60653587D01*
X100524008Y-60744187D01*
X100551736Y-60792212D01*
X100589900Y-60858314D01*
X100683086Y-60951500D01*
X100797214Y-61017392D01*
X100924508Y-61051500D01*
X100924510Y-61051500D01*
X101056290Y-61051500D01*
X101056292Y-61051500D01*
X101183586Y-61017392D01*
X101297714Y-60951500D01*
X101390900Y-60858314D01*
X101456792Y-60744186D01*
X101490900Y-60616892D01*
X101490900Y-60589308D01*
X110141900Y-60589308D01*
X110141900Y-60721091D01*
X110176008Y-60848387D01*
X110181741Y-60858316D01*
X110241900Y-60962514D01*
X110335086Y-61055700D01*
X110449214Y-61121592D01*
X110576508Y-61155700D01*
X110576510Y-61155700D01*
X110708290Y-61155700D01*
X110708292Y-61155700D01*
X110835586Y-61121592D01*
X110949714Y-61055700D01*
X111042900Y-60962514D01*
X111108792Y-60848386D01*
X111142900Y-60721092D01*
X111142900Y-60589308D01*
X111108792Y-60462014D01*
X111042900Y-60347886D01*
X110949714Y-60254700D01*
X110892650Y-60221754D01*
X110835587Y-60188808D01*
X110771939Y-60171754D01*
X110708292Y-60154700D01*
X110576508Y-60154700D01*
X110449212Y-60188808D01*
X110335086Y-60254700D01*
X110335083Y-60254702D01*
X110241902Y-60347883D01*
X110241900Y-60347886D01*
X110176008Y-60462012D01*
X110141900Y-60589308D01*
X101490900Y-60589308D01*
X101490900Y-60485108D01*
X101456792Y-60357814D01*
X101390900Y-60243686D01*
X101297714Y-60150500D01*
X101219836Y-60105537D01*
X101183587Y-60084608D01*
X101119939Y-60067554D01*
X101056292Y-60050500D01*
X100924508Y-60050500D01*
X100797212Y-60084608D01*
X100683086Y-60150500D01*
X100683083Y-60150502D01*
X100589902Y-60243683D01*
X100589900Y-60243686D01*
X100524008Y-60357812D01*
X100517063Y-60383733D01*
X100489900Y-60485108D01*
X100000346Y-60485108D01*
X99990941Y-60462402D01*
X99875977Y-60290345D01*
X99875975Y-60290342D01*
X99729657Y-60144024D01*
X99589687Y-60050500D01*
X99557598Y-60029059D01*
X99366420Y-59949870D01*
X99366412Y-59949868D01*
X99163469Y-59909500D01*
X99163465Y-59909500D01*
X98956535Y-59909500D01*
X98956530Y-59909500D01*
X98753587Y-59949868D01*
X98753579Y-59949870D01*
X98562403Y-60029058D01*
X98390342Y-60144024D01*
X98244025Y-60290341D01*
X98244022Y-60290345D01*
X98217602Y-60329886D01*
X98163990Y-60374691D01*
X98094665Y-60383398D01*
X98031637Y-60353243D01*
X97994918Y-60293800D01*
X97990500Y-60260995D01*
X97990500Y-59623946D01*
X105268435Y-59623946D01*
X105268435Y-59755730D01*
X105270598Y-59763801D01*
X105302543Y-59883025D01*
X105313725Y-59902392D01*
X105368435Y-59997152D01*
X105461621Y-60090338D01*
X105575749Y-60156230D01*
X105703043Y-60190338D01*
X105703045Y-60190338D01*
X105834825Y-60190338D01*
X105834827Y-60190338D01*
X105962121Y-60156230D01*
X106049924Y-60105536D01*
X106117822Y-60089064D01*
X106173922Y-60105536D01*
X106275705Y-60164301D01*
X106402999Y-60198409D01*
X106403001Y-60198409D01*
X106534781Y-60198409D01*
X106534783Y-60198409D01*
X106662077Y-60164301D01*
X106776205Y-60098409D01*
X106869391Y-60005223D01*
X106935283Y-59891095D01*
X106969391Y-59763801D01*
X106969391Y-59632017D01*
X106935283Y-59504723D01*
X106869391Y-59390595D01*
X106776205Y-59297409D01*
X106714939Y-59262037D01*
X106683231Y-59243730D01*
X106635016Y-59193162D01*
X106621794Y-59124555D01*
X106641833Y-59067898D01*
X106648719Y-59057494D01*
X106674100Y-59032114D01*
X106690269Y-59004108D01*
X107855900Y-59004108D01*
X107855900Y-59135891D01*
X107890008Y-59263187D01*
X107909768Y-59297411D01*
X107955900Y-59377314D01*
X108049086Y-59470500D01*
X108163214Y-59536392D01*
X108290508Y-59570500D01*
X108290510Y-59570500D01*
X108394134Y-59570500D01*
X108461173Y-59590185D01*
X108501521Y-59632500D01*
X108565500Y-59743314D01*
X108658686Y-59836500D01*
X108772814Y-59902392D01*
X108900108Y-59936500D01*
X108900110Y-59936500D01*
X109031890Y-59936500D01*
X109031892Y-59936500D01*
X109159186Y-59902392D01*
X109273314Y-59836500D01*
X109366500Y-59743314D01*
X109432392Y-59629186D01*
X109466500Y-59501892D01*
X109466500Y-59370108D01*
X109432392Y-59242814D01*
X109428443Y-59235975D01*
X109402588Y-59191192D01*
X109366500Y-59128686D01*
X109273314Y-59035500D01*
X109205359Y-58996266D01*
X109159187Y-58969608D01*
X109089355Y-58950897D01*
X109031892Y-58935500D01*
X108928266Y-58935500D01*
X108861227Y-58915815D01*
X108820879Y-58873500D01*
X108789355Y-58818900D01*
X108756900Y-58762686D01*
X108663714Y-58669500D01*
X108602464Y-58634137D01*
X108549587Y-58603608D01*
X108485939Y-58586554D01*
X108422292Y-58569500D01*
X108290508Y-58569500D01*
X108163212Y-58603608D01*
X108049086Y-58669500D01*
X108049083Y-58669502D01*
X107955902Y-58762683D01*
X107955900Y-58762686D01*
X107890008Y-58876812D01*
X107855900Y-59004108D01*
X106690269Y-59004108D01*
X106739992Y-58917986D01*
X106774100Y-58790692D01*
X106774100Y-58658908D01*
X106739992Y-58531614D01*
X106735289Y-58523469D01*
X106728429Y-58511586D01*
X106674100Y-58417486D01*
X106580914Y-58324300D01*
X106508847Y-58282692D01*
X106466787Y-58258408D01*
X106384620Y-58236392D01*
X106339492Y-58224300D01*
X106207708Y-58224300D01*
X106080412Y-58258408D01*
X105966286Y-58324300D01*
X105966283Y-58324302D01*
X105873102Y-58417483D01*
X105873100Y-58417486D01*
X105807208Y-58531612D01*
X105773100Y-58658908D01*
X105773100Y-58790691D01*
X105807208Y-58917987D01*
X105856486Y-59003337D01*
X105872959Y-59071238D01*
X105850107Y-59137265D01*
X105795186Y-59180455D01*
X105749099Y-59189338D01*
X105703043Y-59189338D01*
X105575747Y-59223446D01*
X105461621Y-59289338D01*
X105461618Y-59289340D01*
X105368437Y-59382521D01*
X105368435Y-59382524D01*
X105302543Y-59496650D01*
X105277481Y-59590185D01*
X105268435Y-59623946D01*
X97990500Y-59623946D01*
X97990500Y-59119004D01*
X98010185Y-59051965D01*
X98062989Y-59006210D01*
X98132147Y-58996266D01*
X98195703Y-59025291D01*
X98217603Y-59050114D01*
X98244024Y-59089657D01*
X98390342Y-59235975D01*
X98390345Y-59235977D01*
X98562402Y-59350941D01*
X98753580Y-59430130D01*
X98956520Y-59470497D01*
X98956530Y-59470499D01*
X98956534Y-59470500D01*
X98956535Y-59470500D01*
X99163466Y-59470500D01*
X99163467Y-59470499D01*
X99366420Y-59430130D01*
X99557598Y-59350941D01*
X99729655Y-59235977D01*
X99875977Y-59089655D01*
X99990941Y-58917598D01*
X100070130Y-58726420D01*
X100110500Y-58523465D01*
X100110500Y-58316535D01*
X100097765Y-58252510D01*
X100080751Y-58166972D01*
X100077555Y-58150908D01*
X100642300Y-58150908D01*
X100642300Y-58282691D01*
X100676408Y-58409987D01*
X100680736Y-58417483D01*
X100742300Y-58524114D01*
X100835486Y-58617300D01*
X100949614Y-58683192D01*
X101076908Y-58717300D01*
X101076910Y-58717300D01*
X101208690Y-58717300D01*
X101208692Y-58717300D01*
X101335986Y-58683192D01*
X101450114Y-58617300D01*
X101543300Y-58524114D01*
X101609192Y-58409986D01*
X101643300Y-58282692D01*
X101643300Y-58252508D01*
X103080700Y-58252508D01*
X103080700Y-58384292D01*
X103089594Y-58417486D01*
X103114808Y-58511587D01*
X103122040Y-58524113D01*
X103180700Y-58625714D01*
X103273886Y-58718900D01*
X103388014Y-58784792D01*
X103515308Y-58818900D01*
X103515310Y-58818900D01*
X103647090Y-58818900D01*
X103647092Y-58818900D01*
X103774386Y-58784792D01*
X103888514Y-58718900D01*
X103981700Y-58625714D01*
X104047592Y-58511586D01*
X104081700Y-58384292D01*
X104081700Y-58252508D01*
X104047592Y-58125214D01*
X103981700Y-58011086D01*
X103888514Y-57917900D01*
X103794665Y-57863716D01*
X103774387Y-57852008D01*
X103706391Y-57833789D01*
X103647092Y-57817900D01*
X103515308Y-57817900D01*
X103388012Y-57852008D01*
X103273886Y-57917900D01*
X103273883Y-57917902D01*
X103180702Y-58011083D01*
X103180700Y-58011086D01*
X103114808Y-58125212D01*
X103088258Y-58224300D01*
X103080700Y-58252508D01*
X101643300Y-58252508D01*
X101643300Y-58150908D01*
X101609192Y-58023614D01*
X101608717Y-58022792D01*
X101574304Y-57963187D01*
X101543300Y-57909486D01*
X101450114Y-57816300D01*
X101393050Y-57783354D01*
X101335987Y-57750408D01*
X101272339Y-57733354D01*
X101208692Y-57716300D01*
X101076908Y-57716300D01*
X100949612Y-57750408D01*
X100835486Y-57816300D01*
X100835483Y-57816302D01*
X100742302Y-57909483D01*
X100742300Y-57909486D01*
X100676408Y-58023612D01*
X100642300Y-58150908D01*
X100077555Y-58150908D01*
X100070131Y-58113585D01*
X100070130Y-58113584D01*
X100070130Y-58113580D01*
X99990941Y-57922402D01*
X99875977Y-57750345D01*
X99875975Y-57750342D01*
X99729657Y-57604024D01*
X99701909Y-57585484D01*
X99559767Y-57490508D01*
X105163500Y-57490508D01*
X105163500Y-57622291D01*
X105197608Y-57749587D01*
X105219806Y-57788034D01*
X105263500Y-57863714D01*
X105356686Y-57956900D01*
X105470814Y-58022792D01*
X105598108Y-58056900D01*
X105598110Y-58056900D01*
X105729890Y-58056900D01*
X105729892Y-58056900D01*
X105857186Y-58022792D01*
X105971314Y-57956900D01*
X106064500Y-57863714D01*
X106130392Y-57749586D01*
X106164500Y-57622292D01*
X106164500Y-57490508D01*
X106157694Y-57465108D01*
X109481500Y-57465108D01*
X109481500Y-57596891D01*
X109515608Y-57724187D01*
X109548554Y-57781250D01*
X109581500Y-57838314D01*
X109674686Y-57931500D01*
X109788814Y-57997392D01*
X109916108Y-58031500D01*
X109916110Y-58031500D01*
X110047890Y-58031500D01*
X110047892Y-58031500D01*
X110175186Y-57997392D01*
X110289314Y-57931500D01*
X110382500Y-57838314D01*
X110448392Y-57724186D01*
X110453772Y-57704108D01*
X111284900Y-57704108D01*
X111284900Y-57835891D01*
X111319008Y-57963187D01*
X111338756Y-57997391D01*
X111384900Y-58077314D01*
X111478086Y-58170500D01*
X111592214Y-58236392D01*
X111719508Y-58270500D01*
X111719510Y-58270500D01*
X111851290Y-58270500D01*
X111851292Y-58270500D01*
X111978586Y-58236392D01*
X112092714Y-58170500D01*
X112185900Y-58077314D01*
X112251792Y-57963186D01*
X112285900Y-57835892D01*
X112285900Y-57704108D01*
X112251792Y-57576814D01*
X112185900Y-57462686D01*
X112092714Y-57369500D01*
X111990870Y-57310700D01*
X111978587Y-57303608D01*
X111914939Y-57286554D01*
X111851292Y-57269500D01*
X111719508Y-57269500D01*
X111592212Y-57303608D01*
X111478086Y-57369500D01*
X111478083Y-57369502D01*
X111384902Y-57462683D01*
X111384900Y-57462686D01*
X111319008Y-57576812D01*
X111284900Y-57704108D01*
X110453772Y-57704108D01*
X110482500Y-57596892D01*
X110482500Y-57465108D01*
X110448392Y-57337814D01*
X110382500Y-57223686D01*
X110289314Y-57130500D01*
X110219180Y-57090008D01*
X110175187Y-57064608D01*
X110092666Y-57042497D01*
X110047892Y-57030500D01*
X109916108Y-57030500D01*
X109788812Y-57064608D01*
X109674686Y-57130500D01*
X109674683Y-57130502D01*
X109581502Y-57223683D01*
X109581500Y-57223686D01*
X109515608Y-57337812D01*
X109481500Y-57465108D01*
X106157694Y-57465108D01*
X106130392Y-57363214D01*
X106064500Y-57249086D01*
X105971314Y-57155900D01*
X105889028Y-57108392D01*
X105857187Y-57090008D01*
X105762391Y-57064608D01*
X105729892Y-57055900D01*
X105598108Y-57055900D01*
X105470812Y-57090008D01*
X105356686Y-57155900D01*
X105356683Y-57155902D01*
X105263502Y-57249083D01*
X105263500Y-57249086D01*
X105197608Y-57363212D01*
X105163500Y-57490508D01*
X99559767Y-57490508D01*
X99557598Y-57489059D01*
X99557593Y-57489057D01*
X99366420Y-57409870D01*
X99366412Y-57409868D01*
X99163469Y-57369500D01*
X99163465Y-57369500D01*
X98956535Y-57369500D01*
X98956530Y-57369500D01*
X98753587Y-57409868D01*
X98753579Y-57409870D01*
X98562403Y-57489058D01*
X98390342Y-57604024D01*
X98244025Y-57750341D01*
X98244022Y-57750345D01*
X98217602Y-57789886D01*
X98163990Y-57834691D01*
X98094665Y-57843398D01*
X98031637Y-57813243D01*
X97994918Y-57753800D01*
X97990500Y-57720995D01*
X97990500Y-56579004D01*
X98010185Y-56511965D01*
X98062989Y-56466210D01*
X98132147Y-56456266D01*
X98195703Y-56485291D01*
X98217603Y-56510114D01*
X98244024Y-56549657D01*
X98390342Y-56695975D01*
X98390345Y-56695977D01*
X98562402Y-56810941D01*
X98753580Y-56890130D01*
X98877103Y-56914700D01*
X98956530Y-56930499D01*
X98956534Y-56930500D01*
X98956535Y-56930500D01*
X99163466Y-56930500D01*
X99163467Y-56930499D01*
X99366420Y-56890130D01*
X99557598Y-56810941D01*
X99729655Y-56695977D01*
X99875977Y-56549655D01*
X99990941Y-56377598D01*
X100070130Y-56186420D01*
X100110500Y-55983465D01*
X100110500Y-55776535D01*
X100070130Y-55573580D01*
X99990941Y-55382402D01*
X99875977Y-55210345D01*
X99875975Y-55210342D01*
X99729657Y-55064024D01*
X99643626Y-55006541D01*
X99557598Y-54949059D01*
X99530141Y-54937686D01*
X99366420Y-54869870D01*
X99366412Y-54869868D01*
X99163469Y-54829500D01*
X99163465Y-54829500D01*
X98956535Y-54829500D01*
X98956530Y-54829500D01*
X98753587Y-54869868D01*
X98753579Y-54869870D01*
X98562403Y-54949058D01*
X98390342Y-55064024D01*
X98244025Y-55210341D01*
X98244022Y-55210345D01*
X98217602Y-55249886D01*
X98163990Y-55294691D01*
X98094665Y-55303398D01*
X98031637Y-55273243D01*
X97994918Y-55213800D01*
X97990500Y-55180995D01*
X97990500Y-54501861D01*
X98010185Y-54434822D01*
X98062989Y-54389067D01*
X98132147Y-54379123D01*
X98138692Y-54380244D01*
X98190250Y-54390500D01*
X98190252Y-54390500D01*
X99929750Y-54390500D01*
X99929751Y-54390499D01*
X99944568Y-54387552D01*
X99988229Y-54378868D01*
X99988229Y-54378867D01*
X99988231Y-54378867D01*
X100054552Y-54334552D01*
X100098867Y-54268231D01*
X100098867Y-54268229D01*
X100098868Y-54268229D01*
X100110499Y-54209752D01*
X100110500Y-54209750D01*
X100110500Y-53414059D01*
X100130185Y-53347020D01*
X100182989Y-53301265D01*
X100252147Y-53291321D01*
X100315703Y-53320346D01*
X100332875Y-53338571D01*
X100335898Y-53342511D01*
X100335900Y-53342514D01*
X100429086Y-53435700D01*
X100543214Y-53501592D01*
X100670508Y-53535700D01*
X100670510Y-53535700D01*
X100802290Y-53535700D01*
X100802292Y-53535700D01*
X100929586Y-53501592D01*
X101043714Y-53435700D01*
X101136900Y-53342514D01*
X101202792Y-53228386D01*
X101224570Y-53147108D01*
X104147500Y-53147108D01*
X104147500Y-53278892D01*
X104163491Y-53338571D01*
X104181608Y-53406187D01*
X104186153Y-53414059D01*
X104247500Y-53520314D01*
X104340686Y-53613500D01*
X104340689Y-53613501D01*
X104340692Y-53613504D01*
X104340886Y-53613616D01*
X104341016Y-53613753D01*
X104347135Y-53618448D01*
X104346402Y-53619402D01*
X104389099Y-53664185D01*
X104402319Y-53732793D01*
X104376348Y-53797656D01*
X104346866Y-53823201D01*
X104347135Y-53823552D01*
X104341257Y-53828062D01*
X104340886Y-53828384D01*
X104340692Y-53828495D01*
X104340683Y-53828502D01*
X104247502Y-53921683D01*
X104247500Y-53921686D01*
X104181608Y-54035812D01*
X104147500Y-54163108D01*
X104147500Y-54294891D01*
X104181608Y-54422187D01*
X104185734Y-54429333D01*
X104247500Y-54536314D01*
X104340686Y-54629500D01*
X104340689Y-54629501D01*
X104340692Y-54629504D01*
X104340886Y-54629616D01*
X104341016Y-54629753D01*
X104347135Y-54634448D01*
X104346402Y-54635402D01*
X104389099Y-54680185D01*
X104402319Y-54748793D01*
X104376348Y-54813656D01*
X104346866Y-54839201D01*
X104347135Y-54839552D01*
X104341257Y-54844062D01*
X104340886Y-54844384D01*
X104340692Y-54844495D01*
X104340683Y-54844502D01*
X104247502Y-54937683D01*
X104247500Y-54937686D01*
X104181608Y-55051812D01*
X104178336Y-55064024D01*
X104147500Y-55179108D01*
X104147500Y-55310892D01*
X104164554Y-55374539D01*
X104181608Y-55438187D01*
X104190796Y-55454100D01*
X104247500Y-55552314D01*
X104340686Y-55645500D01*
X104340689Y-55645501D01*
X104340692Y-55645504D01*
X104340886Y-55645616D01*
X104341016Y-55645753D01*
X104347135Y-55650448D01*
X104346402Y-55651402D01*
X104389099Y-55696185D01*
X104402319Y-55764793D01*
X104376348Y-55829656D01*
X104346866Y-55855201D01*
X104347135Y-55855552D01*
X104341257Y-55860062D01*
X104340886Y-55860384D01*
X104340692Y-55860495D01*
X104340683Y-55860502D01*
X104247502Y-55953683D01*
X104247500Y-55953686D01*
X104181608Y-56067812D01*
X104180220Y-56072993D01*
X104147500Y-56195108D01*
X104147500Y-56326892D01*
X104152600Y-56345925D01*
X104181608Y-56454187D01*
X104211511Y-56505980D01*
X104247500Y-56568314D01*
X104340686Y-56661500D01*
X104454814Y-56727392D01*
X104582108Y-56761500D01*
X104582110Y-56761500D01*
X104713890Y-56761500D01*
X104713892Y-56761500D01*
X104841186Y-56727392D01*
X104955314Y-56661500D01*
X105040706Y-56576108D01*
X107449500Y-56576108D01*
X107449500Y-56707891D01*
X107483608Y-56835187D01*
X107515329Y-56890129D01*
X107549500Y-56949314D01*
X107642686Y-57042500D01*
X107756814Y-57108392D01*
X107884108Y-57142500D01*
X107884110Y-57142500D01*
X108015890Y-57142500D01*
X108015892Y-57142500D01*
X108143186Y-57108392D01*
X108257314Y-57042500D01*
X108350500Y-56949314D01*
X108416392Y-56835186D01*
X108450500Y-56707892D01*
X108450500Y-56576108D01*
X108416392Y-56448814D01*
X108350500Y-56334686D01*
X108257314Y-56241500D01*
X108200250Y-56208554D01*
X108143187Y-56175608D01*
X108079539Y-56158554D01*
X108015892Y-56141500D01*
X107884108Y-56141500D01*
X107756812Y-56175608D01*
X107642686Y-56241500D01*
X107642683Y-56241502D01*
X107549502Y-56334683D01*
X107549500Y-56334686D01*
X107483608Y-56448812D01*
X107449500Y-56576108D01*
X105040706Y-56576108D01*
X105048500Y-56568314D01*
X105114392Y-56454186D01*
X105148500Y-56326892D01*
X105148500Y-56195108D01*
X105114392Y-56067814D01*
X105048500Y-55953686D01*
X104955314Y-55860500D01*
X104946337Y-55855317D01*
X104938497Y-55848889D01*
X104924298Y-55828065D01*
X104906903Y-55809822D01*
X104904949Y-55799688D01*
X104899136Y-55791162D01*
X104898449Y-55765966D01*
X104893679Y-55741215D01*
X104897514Y-55731633D01*
X104897234Y-55721318D01*
X104910277Y-55699753D01*
X104919646Y-55676350D01*
X104929703Y-55667635D01*
X104933394Y-55661533D01*
X104941107Y-55657753D01*
X104949133Y-55650798D01*
X104948865Y-55650448D01*
X104954746Y-55645935D01*
X104955116Y-55645613D01*
X104955314Y-55645500D01*
X105048500Y-55552314D01*
X105114392Y-55438186D01*
X105148500Y-55310892D01*
X105148500Y-55179108D01*
X105114392Y-55051814D01*
X105048500Y-54937686D01*
X104955314Y-54844500D01*
X104955117Y-54844386D01*
X104954987Y-54844250D01*
X104948865Y-54839552D01*
X104949597Y-54838597D01*
X104906903Y-54793822D01*
X104893679Y-54725215D01*
X104919646Y-54660350D01*
X104949133Y-54634798D01*
X104948865Y-54634448D01*
X104954746Y-54629935D01*
X104955116Y-54629613D01*
X104955314Y-54629500D01*
X105048500Y-54536314D01*
X105114392Y-54422186D01*
X105148500Y-54294892D01*
X105148500Y-54163108D01*
X105114392Y-54035814D01*
X105048500Y-53921686D01*
X104955314Y-53828500D01*
X104955117Y-53828386D01*
X104954987Y-53828250D01*
X104948865Y-53823552D01*
X104949597Y-53822597D01*
X104906903Y-53777822D01*
X104893679Y-53709215D01*
X104919646Y-53644350D01*
X104949133Y-53618798D01*
X104948865Y-53618448D01*
X104954746Y-53613935D01*
X104955116Y-53613613D01*
X104955314Y-53613500D01*
X105048500Y-53520314D01*
X105114392Y-53406186D01*
X105148500Y-53278892D01*
X105148500Y-53147108D01*
X105114392Y-53019814D01*
X105048500Y-52905686D01*
X104955314Y-52812500D01*
X104886954Y-52773032D01*
X104841187Y-52746608D01*
X104771303Y-52727883D01*
X104713892Y-52712500D01*
X104582108Y-52712500D01*
X104454812Y-52746608D01*
X104340686Y-52812500D01*
X104340683Y-52812502D01*
X104247502Y-52905683D01*
X104247500Y-52905686D01*
X104181608Y-53019812D01*
X104159830Y-53101090D01*
X104147500Y-53147108D01*
X101224570Y-53147108D01*
X101236900Y-53101092D01*
X101236900Y-52969308D01*
X101202792Y-52842014D01*
X101136900Y-52727886D01*
X101043714Y-52634700D01*
X100986650Y-52601754D01*
X100929587Y-52568808D01*
X100865939Y-52551754D01*
X100802292Y-52534700D01*
X100670508Y-52534700D01*
X100543212Y-52568808D01*
X100429086Y-52634700D01*
X100429083Y-52634702D01*
X100335896Y-52727889D01*
X100332871Y-52731832D01*
X100276441Y-52773032D01*
X100206695Y-52777182D01*
X100145776Y-52742966D01*
X100113027Y-52681247D01*
X100110500Y-52656340D01*
X100110500Y-52470249D01*
X100110499Y-52470247D01*
X100098868Y-52411770D01*
X100098867Y-52411769D01*
X100054552Y-52345447D01*
X99988230Y-52301132D01*
X99988229Y-52301131D01*
X99929752Y-52289500D01*
X99929748Y-52289500D01*
X98190252Y-52289500D01*
X98190251Y-52289500D01*
X98149592Y-52297587D01*
X98124335Y-52295326D01*
X98099045Y-52297135D01*
X98090124Y-52292264D01*
X98080001Y-52291358D01*
X98059975Y-52275801D01*
X98037722Y-52263650D01*
X98032851Y-52254729D01*
X98024824Y-52248494D01*
X98016388Y-52224580D01*
X98004237Y-52202327D01*
X98003143Y-52187032D01*
X98001581Y-52182604D01*
X98001718Y-52167136D01*
X98007216Y-52090261D01*
X98009732Y-52072764D01*
X98057660Y-51852446D01*
X98062639Y-51835488D01*
X98141436Y-51624223D01*
X98141945Y-51623108D01*
X104198300Y-51623108D01*
X104198300Y-51754892D01*
X104206634Y-51785995D01*
X104232408Y-51882187D01*
X104257076Y-51924912D01*
X104298300Y-51996314D01*
X104391486Y-52089500D01*
X104505614Y-52155392D01*
X104632908Y-52189500D01*
X104632910Y-52189500D01*
X104764690Y-52189500D01*
X104764692Y-52189500D01*
X104891986Y-52155392D01*
X105006114Y-52089500D01*
X105099300Y-51996314D01*
X105165192Y-51882186D01*
X105199300Y-51754892D01*
X105199300Y-51623108D01*
X105165192Y-51495814D01*
X105099300Y-51381686D01*
X105086722Y-51369108D01*
X108084500Y-51369108D01*
X108084500Y-51500892D01*
X108101554Y-51564539D01*
X108118608Y-51628187D01*
X108140499Y-51666103D01*
X108184500Y-51742314D01*
X108277686Y-51835500D01*
X108391814Y-51901392D01*
X108519108Y-51935500D01*
X108519110Y-51935500D01*
X108650890Y-51935500D01*
X108650892Y-51935500D01*
X108778186Y-51901392D01*
X108892314Y-51835500D01*
X108985500Y-51742314D01*
X109051392Y-51628186D01*
X109085500Y-51500892D01*
X109085500Y-51369108D01*
X109051392Y-51241814D01*
X108985500Y-51127686D01*
X108892314Y-51034500D01*
X108806389Y-50984891D01*
X108778187Y-50968608D01*
X108714539Y-50951554D01*
X108650892Y-50934500D01*
X108519108Y-50934500D01*
X108391812Y-50968608D01*
X108277686Y-51034500D01*
X108277683Y-51034502D01*
X108184502Y-51127683D01*
X108184500Y-51127686D01*
X108118608Y-51241812D01*
X108097792Y-51319500D01*
X108084500Y-51369108D01*
X105086722Y-51369108D01*
X105006114Y-51288500D01*
X104925252Y-51241814D01*
X104891987Y-51222608D01*
X104813269Y-51201516D01*
X104764692Y-51188500D01*
X104632908Y-51188500D01*
X104505612Y-51222608D01*
X104391486Y-51288500D01*
X104391483Y-51288502D01*
X104298302Y-51381683D01*
X104298300Y-51381686D01*
X104232408Y-51495812D01*
X104231047Y-51500892D01*
X104198300Y-51623108D01*
X98141945Y-51623108D01*
X98148777Y-51608150D01*
X98256838Y-51410251D01*
X98266388Y-51395390D01*
X98401519Y-51214877D01*
X98413091Y-51201523D01*
X98572523Y-51042091D01*
X98585877Y-51030519D01*
X98766390Y-50895388D01*
X98781251Y-50885838D01*
X98979150Y-50777777D01*
X98995223Y-50770436D01*
X99206488Y-50691639D01*
X99223446Y-50686660D01*
X99443764Y-50638732D01*
X99461261Y-50636216D01*
X99690582Y-50619816D01*
X99699428Y-50619500D01*
X99734882Y-50619500D01*
X101610095Y-50619500D01*
X101677134Y-50639185D01*
G37*
%TD.AperFunction*%
%TD*%
M02*
