%TF.GenerationSoftware,KiCad,Pcbnew,9.0.7*%
%TF.CreationDate,2026-04-08T23:08:04-07:00*%
%TF.ProjectId,Xiao_iCE40LP384_Addon,5869616f-5f69-4434-9534-304c50333834,rev?*%
%TF.SameCoordinates,Original*%
%TF.FileFunction,Legend,Top*%
%TF.FilePolarity,Positive*%
%FSLAX46Y46*%
G04 Gerber Fmt 4.6, Leading zero omitted, Abs format (unit mm)*
G04 Created by KiCad (PCBNEW 9.0.7) date 2026-04-08 23:08:04*
%MOMM*%
%LPD*%
G01*
G04 APERTURE LIST*
%ADD10C,0.100000*%
%ADD11C,0.150000*%
%ADD12C,0.120000*%
%ADD13C,0.152400*%
%ADD14C,0.000000*%
G04 APERTURE END LIST*
D10*
X98614895Y-63395238D02*
X99186323Y-63395238D01*
X99186323Y-63395238D02*
X99300609Y-63433333D01*
X99300609Y-63433333D02*
X99376800Y-63509524D01*
X99376800Y-63509524D02*
X99414895Y-63623809D01*
X99414895Y-63623809D02*
X99414895Y-63700000D01*
X99414895Y-62633333D02*
X99414895Y-63014285D01*
X99414895Y-63014285D02*
X98614895Y-63014285D01*
X99338704Y-61909523D02*
X99376800Y-61947619D01*
X99376800Y-61947619D02*
X99414895Y-62061904D01*
X99414895Y-62061904D02*
X99414895Y-62138095D01*
X99414895Y-62138095D02*
X99376800Y-62252381D01*
X99376800Y-62252381D02*
X99300609Y-62328571D01*
X99300609Y-62328571D02*
X99224419Y-62366666D01*
X99224419Y-62366666D02*
X99072038Y-62404762D01*
X99072038Y-62404762D02*
X98957752Y-62404762D01*
X98957752Y-62404762D02*
X98805371Y-62366666D01*
X98805371Y-62366666D02*
X98729180Y-62328571D01*
X98729180Y-62328571D02*
X98652990Y-62252381D01*
X98652990Y-62252381D02*
X98614895Y-62138095D01*
X98614895Y-62138095D02*
X98614895Y-62061904D01*
X98614895Y-62061904D02*
X98652990Y-61947619D01*
X98652990Y-61947619D02*
X98691085Y-61909523D01*
X98614895Y-61338095D02*
X99186323Y-61338095D01*
X99186323Y-61338095D02*
X99300609Y-61376190D01*
X99300609Y-61376190D02*
X99376800Y-61452381D01*
X99376800Y-61452381D02*
X99414895Y-61566666D01*
X99414895Y-61566666D02*
X99414895Y-61642857D01*
X99414895Y-60576190D02*
X99414895Y-60957142D01*
X99414895Y-60957142D02*
X98614895Y-60957142D01*
X99338704Y-59852380D02*
X99376800Y-59890476D01*
X99376800Y-59890476D02*
X99414895Y-60004761D01*
X99414895Y-60004761D02*
X99414895Y-60080952D01*
X99414895Y-60080952D02*
X99376800Y-60195238D01*
X99376800Y-60195238D02*
X99300609Y-60271428D01*
X99300609Y-60271428D02*
X99224419Y-60309523D01*
X99224419Y-60309523D02*
X99072038Y-60347619D01*
X99072038Y-60347619D02*
X98957752Y-60347619D01*
X98957752Y-60347619D02*
X98805371Y-60309523D01*
X98805371Y-60309523D02*
X98729180Y-60271428D01*
X98729180Y-60271428D02*
X98652990Y-60195238D01*
X98652990Y-60195238D02*
X98614895Y-60080952D01*
X98614895Y-60080952D02*
X98614895Y-60004761D01*
X98614895Y-60004761D02*
X98652990Y-59890476D01*
X98652990Y-59890476D02*
X98691085Y-59852380D01*
X98614895Y-59280952D02*
X99186323Y-59280952D01*
X99186323Y-59280952D02*
X99300609Y-59319047D01*
X99300609Y-59319047D02*
X99376800Y-59395238D01*
X99376800Y-59395238D02*
X99414895Y-59509523D01*
X99414895Y-59509523D02*
X99414895Y-59585714D01*
X99414895Y-58519047D02*
X99414895Y-58899999D01*
X99414895Y-58899999D02*
X98614895Y-58899999D01*
X99338704Y-57795237D02*
X99376800Y-57833333D01*
X99376800Y-57833333D02*
X99414895Y-57947618D01*
X99414895Y-57947618D02*
X99414895Y-58023809D01*
X99414895Y-58023809D02*
X99376800Y-58138095D01*
X99376800Y-58138095D02*
X99300609Y-58214285D01*
X99300609Y-58214285D02*
X99224419Y-58252380D01*
X99224419Y-58252380D02*
X99072038Y-58290476D01*
X99072038Y-58290476D02*
X98957752Y-58290476D01*
X98957752Y-58290476D02*
X98805371Y-58252380D01*
X98805371Y-58252380D02*
X98729180Y-58214285D01*
X98729180Y-58214285D02*
X98652990Y-58138095D01*
X98652990Y-58138095D02*
X98614895Y-58023809D01*
X98614895Y-58023809D02*
X98614895Y-57947618D01*
X98614895Y-57947618D02*
X98652990Y-57833333D01*
X98652990Y-57833333D02*
X98691085Y-57795237D01*
X98614895Y-57223809D02*
X99186323Y-57223809D01*
X99186323Y-57223809D02*
X99300609Y-57261904D01*
X99300609Y-57261904D02*
X99376800Y-57338095D01*
X99376800Y-57338095D02*
X99414895Y-57452380D01*
X99414895Y-57452380D02*
X99414895Y-57528571D01*
X99414895Y-56461904D02*
X99414895Y-56842856D01*
X99414895Y-56842856D02*
X98614895Y-56842856D01*
X99338704Y-55738094D02*
X99376800Y-55776190D01*
X99376800Y-55776190D02*
X99414895Y-55890475D01*
X99414895Y-55890475D02*
X99414895Y-55966666D01*
X99414895Y-55966666D02*
X99376800Y-56080952D01*
X99376800Y-56080952D02*
X99300609Y-56157142D01*
X99300609Y-56157142D02*
X99224419Y-56195237D01*
X99224419Y-56195237D02*
X99072038Y-56233333D01*
X99072038Y-56233333D02*
X98957752Y-56233333D01*
X98957752Y-56233333D02*
X98805371Y-56195237D01*
X98805371Y-56195237D02*
X98729180Y-56157142D01*
X98729180Y-56157142D02*
X98652990Y-56080952D01*
X98652990Y-56080952D02*
X98614895Y-55966666D01*
X98614895Y-55966666D02*
X98614895Y-55890475D01*
X98614895Y-55890475D02*
X98652990Y-55776190D01*
X98652990Y-55776190D02*
X98691085Y-55738094D01*
X101994294Y-51484295D02*
X101994294Y-50684295D01*
X101994294Y-50684295D02*
X102451437Y-51484295D01*
X102451437Y-51484295D02*
X102451437Y-50684295D01*
X102946674Y-51484295D02*
X102870484Y-51446200D01*
X102870484Y-51446200D02*
X102832389Y-51408104D01*
X102832389Y-51408104D02*
X102794293Y-51331914D01*
X102794293Y-51331914D02*
X102794293Y-51103342D01*
X102794293Y-51103342D02*
X102832389Y-51027152D01*
X102832389Y-51027152D02*
X102870484Y-50989057D01*
X102870484Y-50989057D02*
X102946674Y-50950961D01*
X102946674Y-50950961D02*
X103060960Y-50950961D01*
X103060960Y-50950961D02*
X103137151Y-50989057D01*
X103137151Y-50989057D02*
X103175246Y-51027152D01*
X103175246Y-51027152D02*
X103213341Y-51103342D01*
X103213341Y-51103342D02*
X103213341Y-51331914D01*
X103213341Y-51331914D02*
X103175246Y-51408104D01*
X103175246Y-51408104D02*
X103137151Y-51446200D01*
X103137151Y-51446200D02*
X103060960Y-51484295D01*
X103060960Y-51484295D02*
X102946674Y-51484295D01*
X103441913Y-50950961D02*
X103746675Y-50950961D01*
X103556199Y-50684295D02*
X103556199Y-51370009D01*
X103556199Y-51370009D02*
X103594294Y-51446200D01*
X103594294Y-51446200D02*
X103670484Y-51484295D01*
X103670484Y-51484295D02*
X103746675Y-51484295D01*
X105003818Y-50684295D02*
X104622866Y-50684295D01*
X104622866Y-50684295D02*
X104584770Y-51065247D01*
X104584770Y-51065247D02*
X104622866Y-51027152D01*
X104622866Y-51027152D02*
X104699056Y-50989057D01*
X104699056Y-50989057D02*
X104889532Y-50989057D01*
X104889532Y-50989057D02*
X104965723Y-51027152D01*
X104965723Y-51027152D02*
X105003818Y-51065247D01*
X105003818Y-51065247D02*
X105041913Y-51141438D01*
X105041913Y-51141438D02*
X105041913Y-51331914D01*
X105041913Y-51331914D02*
X105003818Y-51408104D01*
X105003818Y-51408104D02*
X104965723Y-51446200D01*
X104965723Y-51446200D02*
X104889532Y-51484295D01*
X104889532Y-51484295D02*
X104699056Y-51484295D01*
X104699056Y-51484295D02*
X104622866Y-51446200D01*
X104622866Y-51446200D02*
X104584770Y-51408104D01*
X105270485Y-50684295D02*
X105537152Y-51484295D01*
X105537152Y-51484295D02*
X105803818Y-50684295D01*
X106565723Y-50684295D02*
X107022866Y-50684295D01*
X106794294Y-51484295D02*
X106794294Y-50684295D01*
X107403818Y-51484295D02*
X107327628Y-51446200D01*
X107327628Y-51446200D02*
X107289533Y-51408104D01*
X107289533Y-51408104D02*
X107251437Y-51331914D01*
X107251437Y-51331914D02*
X107251437Y-51103342D01*
X107251437Y-51103342D02*
X107289533Y-51027152D01*
X107289533Y-51027152D02*
X107327628Y-50989057D01*
X107327628Y-50989057D02*
X107403818Y-50950961D01*
X107403818Y-50950961D02*
X107518104Y-50950961D01*
X107518104Y-50950961D02*
X107594295Y-50989057D01*
X107594295Y-50989057D02*
X107632390Y-51027152D01*
X107632390Y-51027152D02*
X107670485Y-51103342D01*
X107670485Y-51103342D02*
X107670485Y-51331914D01*
X107670485Y-51331914D02*
X107632390Y-51408104D01*
X107632390Y-51408104D02*
X107594295Y-51446200D01*
X107594295Y-51446200D02*
X107518104Y-51484295D01*
X107518104Y-51484295D02*
X107403818Y-51484295D01*
X108127628Y-51484295D02*
X108051438Y-51446200D01*
X108051438Y-51446200D02*
X108013343Y-51370009D01*
X108013343Y-51370009D02*
X108013343Y-50684295D01*
X108737153Y-51446200D02*
X108660962Y-51484295D01*
X108660962Y-51484295D02*
X108508581Y-51484295D01*
X108508581Y-51484295D02*
X108432391Y-51446200D01*
X108432391Y-51446200D02*
X108394295Y-51370009D01*
X108394295Y-51370009D02*
X108394295Y-51065247D01*
X108394295Y-51065247D02*
X108432391Y-50989057D01*
X108432391Y-50989057D02*
X108508581Y-50950961D01*
X108508581Y-50950961D02*
X108660962Y-50950961D01*
X108660962Y-50950961D02*
X108737153Y-50989057D01*
X108737153Y-50989057D02*
X108775248Y-51065247D01*
X108775248Y-51065247D02*
X108775248Y-51141438D01*
X108775248Y-51141438D02*
X108394295Y-51217628D01*
X109118105Y-51484295D02*
X109118105Y-50950961D01*
X109118105Y-51103342D02*
X109156200Y-51027152D01*
X109156200Y-51027152D02*
X109194295Y-50989057D01*
X109194295Y-50989057D02*
X109270486Y-50950961D01*
X109270486Y-50950961D02*
X109346676Y-50950961D01*
X109956200Y-51484295D02*
X109956200Y-51065247D01*
X109956200Y-51065247D02*
X109918105Y-50989057D01*
X109918105Y-50989057D02*
X109841914Y-50950961D01*
X109841914Y-50950961D02*
X109689533Y-50950961D01*
X109689533Y-50950961D02*
X109613343Y-50989057D01*
X109956200Y-51446200D02*
X109880009Y-51484295D01*
X109880009Y-51484295D02*
X109689533Y-51484295D01*
X109689533Y-51484295D02*
X109613343Y-51446200D01*
X109613343Y-51446200D02*
X109575247Y-51370009D01*
X109575247Y-51370009D02*
X109575247Y-51293819D01*
X109575247Y-51293819D02*
X109613343Y-51217628D01*
X109613343Y-51217628D02*
X109689533Y-51179533D01*
X109689533Y-51179533D02*
X109880009Y-51179533D01*
X109880009Y-51179533D02*
X109956200Y-51141438D01*
X110337153Y-50950961D02*
X110337153Y-51484295D01*
X110337153Y-51027152D02*
X110375248Y-50989057D01*
X110375248Y-50989057D02*
X110451438Y-50950961D01*
X110451438Y-50950961D02*
X110565724Y-50950961D01*
X110565724Y-50950961D02*
X110641915Y-50989057D01*
X110641915Y-50989057D02*
X110680010Y-51065247D01*
X110680010Y-51065247D02*
X110680010Y-51484295D01*
X110946677Y-50950961D02*
X111251439Y-50950961D01*
X111060963Y-50684295D02*
X111060963Y-51370009D01*
X111060963Y-51370009D02*
X111099058Y-51446200D01*
X111099058Y-51446200D02*
X111175248Y-51484295D01*
X111175248Y-51484295D02*
X111251439Y-51484295D01*
X111518106Y-51408104D02*
X111556201Y-51446200D01*
X111556201Y-51446200D02*
X111518106Y-51484295D01*
X111518106Y-51484295D02*
X111480010Y-51446200D01*
X111480010Y-51446200D02*
X111518106Y-51408104D01*
X111518106Y-51408104D02*
X111518106Y-51484295D01*
X111518106Y-51179533D02*
X111480010Y-50722390D01*
X111480010Y-50722390D02*
X111518106Y-50684295D01*
X111518106Y-50684295D02*
X111556201Y-50722390D01*
X111556201Y-50722390D02*
X111518106Y-51179533D01*
X111518106Y-51179533D02*
X111518106Y-50684295D01*
D11*
X110871095Y-56985819D02*
X110871095Y-57795342D01*
X110871095Y-57795342D02*
X110918714Y-57890580D01*
X110918714Y-57890580D02*
X110966333Y-57938200D01*
X110966333Y-57938200D02*
X111061571Y-57985819D01*
X111061571Y-57985819D02*
X111252047Y-57985819D01*
X111252047Y-57985819D02*
X111347285Y-57938200D01*
X111347285Y-57938200D02*
X111394904Y-57890580D01*
X111394904Y-57890580D02*
X111442523Y-57795342D01*
X111442523Y-57795342D02*
X111442523Y-56985819D01*
X111871095Y-57081057D02*
X111918714Y-57033438D01*
X111918714Y-57033438D02*
X112013952Y-56985819D01*
X112013952Y-56985819D02*
X112252047Y-56985819D01*
X112252047Y-56985819D02*
X112347285Y-57033438D01*
X112347285Y-57033438D02*
X112394904Y-57081057D01*
X112394904Y-57081057D02*
X112442523Y-57176295D01*
X112442523Y-57176295D02*
X112442523Y-57271533D01*
X112442523Y-57271533D02*
X112394904Y-57414390D01*
X112394904Y-57414390D02*
X111823476Y-57985819D01*
X111823476Y-57985819D02*
X112442523Y-57985819D01*
X111345180Y-52750000D02*
X111107085Y-52750000D01*
X111202323Y-52511905D02*
X111107085Y-52750000D01*
X111107085Y-52750000D02*
X111202323Y-52988095D01*
X110916609Y-52607143D02*
X111107085Y-52750000D01*
X111107085Y-52750000D02*
X110916609Y-52892857D01*
X113458666Y-50762819D02*
X113458666Y-51477104D01*
X113458666Y-51477104D02*
X113411047Y-51619961D01*
X113411047Y-51619961D02*
X113315809Y-51715200D01*
X113315809Y-51715200D02*
X113172952Y-51762819D01*
X113172952Y-51762819D02*
X113077714Y-51762819D01*
X113887238Y-50858057D02*
X113934857Y-50810438D01*
X113934857Y-50810438D02*
X114030095Y-50762819D01*
X114030095Y-50762819D02*
X114268190Y-50762819D01*
X114268190Y-50762819D02*
X114363428Y-50810438D01*
X114363428Y-50810438D02*
X114411047Y-50858057D01*
X114411047Y-50858057D02*
X114458666Y-50953295D01*
X114458666Y-50953295D02*
X114458666Y-51048533D01*
X114458666Y-51048533D02*
X114411047Y-51191390D01*
X114411047Y-51191390D02*
X113839619Y-51762819D01*
X113839619Y-51762819D02*
X114458666Y-51762819D01*
X105346667Y-74384200D02*
X105489524Y-74431819D01*
X105489524Y-74431819D02*
X105727619Y-74431819D01*
X105727619Y-74431819D02*
X105822857Y-74384200D01*
X105822857Y-74384200D02*
X105870476Y-74336580D01*
X105870476Y-74336580D02*
X105918095Y-74241342D01*
X105918095Y-74241342D02*
X105918095Y-74146104D01*
X105918095Y-74146104D02*
X105870476Y-74050866D01*
X105870476Y-74050866D02*
X105822857Y-74003247D01*
X105822857Y-74003247D02*
X105727619Y-73955628D01*
X105727619Y-73955628D02*
X105537143Y-73908009D01*
X105537143Y-73908009D02*
X105441905Y-73860390D01*
X105441905Y-73860390D02*
X105394286Y-73812771D01*
X105394286Y-73812771D02*
X105346667Y-73717533D01*
X105346667Y-73717533D02*
X105346667Y-73622295D01*
X105346667Y-73622295D02*
X105394286Y-73527057D01*
X105394286Y-73527057D02*
X105441905Y-73479438D01*
X105441905Y-73479438D02*
X105537143Y-73431819D01*
X105537143Y-73431819D02*
X105775238Y-73431819D01*
X105775238Y-73431819D02*
X105918095Y-73479438D01*
X106251429Y-73431819D02*
X106489524Y-74431819D01*
X106489524Y-74431819D02*
X106680000Y-73717533D01*
X106680000Y-73717533D02*
X106870476Y-74431819D01*
X106870476Y-74431819D02*
X107108572Y-73431819D01*
X108013333Y-74431819D02*
X107441905Y-74431819D01*
X107727619Y-74431819D02*
X107727619Y-73431819D01*
X107727619Y-73431819D02*
X107632381Y-73574676D01*
X107632381Y-73574676D02*
X107537143Y-73669914D01*
X107537143Y-73669914D02*
X107441905Y-73717533D01*
X98726666Y-50813619D02*
X98726666Y-51527904D01*
X98726666Y-51527904D02*
X98679047Y-51670761D01*
X98679047Y-51670761D02*
X98583809Y-51766000D01*
X98583809Y-51766000D02*
X98440952Y-51813619D01*
X98440952Y-51813619D02*
X98345714Y-51813619D01*
X99726666Y-51813619D02*
X99155238Y-51813619D01*
X99440952Y-51813619D02*
X99440952Y-50813619D01*
X99440952Y-50813619D02*
X99345714Y-50956476D01*
X99345714Y-50956476D02*
X99250476Y-51051714D01*
X99250476Y-51051714D02*
X99155238Y-51099333D01*
X101092095Y-65393219D02*
X101092095Y-66202742D01*
X101092095Y-66202742D02*
X101139714Y-66297980D01*
X101139714Y-66297980D02*
X101187333Y-66345600D01*
X101187333Y-66345600D02*
X101282571Y-66393219D01*
X101282571Y-66393219D02*
X101473047Y-66393219D01*
X101473047Y-66393219D02*
X101568285Y-66345600D01*
X101568285Y-66345600D02*
X101615904Y-66297980D01*
X101615904Y-66297980D02*
X101663523Y-66202742D01*
X101663523Y-66202742D02*
X101663523Y-65393219D01*
X102663523Y-66393219D02*
X102092095Y-66393219D01*
X102377809Y-66393219D02*
X102377809Y-65393219D01*
X102377809Y-65393219D02*
X102282571Y-65536076D01*
X102282571Y-65536076D02*
X102187333Y-65631314D01*
X102187333Y-65631314D02*
X102092095Y-65678933D01*
X102987819Y-66437699D02*
X103225914Y-66437699D01*
X103130676Y-66675794D02*
X103225914Y-66437699D01*
X103225914Y-66437699D02*
X103130676Y-66199604D01*
X103416390Y-66580556D02*
X103225914Y-66437699D01*
X103225914Y-66437699D02*
X103416390Y-66294842D01*
D12*
%TO.C,D1*%
X110715000Y-71085000D02*
X112185000Y-71085000D01*
X112185000Y-71085000D02*
X112185000Y-68800000D01*
X110715000Y-68800000D02*
X110715000Y-71085000D01*
D13*
%TO.C,U2*%
X111035998Y-53113001D02*
X110579240Y-53113001D01*
X108138758Y-53113001D02*
X107682000Y-53113001D01*
X107682000Y-53113001D02*
X107682000Y-53569759D01*
X111035998Y-53569759D02*
X111035998Y-53113001D01*
X107682000Y-56010241D02*
X107682000Y-56466999D01*
X111035998Y-56466999D02*
X111035998Y-56010241D01*
X110579240Y-56466999D02*
X111035998Y-56466999D01*
X107682000Y-56466999D02*
X108138758Y-56466999D01*
D12*
%TO.C,C16*%
X109241000Y-59328164D02*
X109241000Y-59543836D01*
X109961000Y-59328164D02*
X109961000Y-59543836D01*
%TO.C,C1*%
X110597836Y-51710000D02*
X110382164Y-51710000D01*
X110597836Y-52430000D02*
X110382164Y-52430000D01*
%TO.C,C7*%
X105263836Y-58060000D02*
X105048164Y-58060000D01*
X105263836Y-58780000D02*
X105048164Y-58780000D01*
%TO.C,R12*%
X110364000Y-62078359D02*
X110364000Y-62385641D01*
X111124000Y-62078359D02*
X111124000Y-62385641D01*
%TO.C,J2*%
X112970000Y-54610000D02*
X112970000Y-69910000D01*
X112970000Y-54610000D02*
X115630000Y-54610000D01*
X112970000Y-69910000D02*
X115630000Y-69910000D01*
X114300000Y-52010000D02*
X115630000Y-52010000D01*
X115630000Y-52010000D02*
X115630000Y-53340000D01*
X115630000Y-54610000D02*
X115630000Y-69910000D01*
%TO.C,C8*%
X108504400Y-66135364D02*
X108504400Y-66351036D01*
X109224400Y-66135364D02*
X109224400Y-66351036D01*
%TO.C,C11*%
X109368000Y-62122164D02*
X109368000Y-62337836D01*
X110088000Y-62122164D02*
X110088000Y-62337836D01*
%TO.C,C9*%
X104783836Y-66315000D02*
X104568164Y-66315000D01*
X104783836Y-67035000D02*
X104568164Y-67035000D01*
%TO.C,R13*%
X111507000Y-62385641D02*
X111507000Y-62078359D01*
X112267000Y-62385641D02*
X112267000Y-62078359D01*
%TO.C,R3*%
X106071641Y-53849000D02*
X105764359Y-53849000D01*
X106071641Y-54609000D02*
X105764359Y-54609000D01*
%TO.C,R10*%
X101855000Y-68172359D02*
X101855000Y-68479641D01*
X102615000Y-68172359D02*
X102615000Y-68479641D01*
%TO.C,C13*%
X108692836Y-57171000D02*
X108477164Y-57171000D01*
X108692836Y-57891000D02*
X108477164Y-57891000D01*
%TO.C,R5*%
X111507000Y-52729641D02*
X111507000Y-52422359D01*
X112267000Y-52729641D02*
X112267000Y-52422359D01*
%TO.C,R1*%
X106071641Y-55881000D02*
X105764359Y-55881000D01*
X106071641Y-56641000D02*
X105764359Y-56641000D01*
%TO.C,SW1*%
X104230000Y-69202000D02*
X104230000Y-69752000D01*
X104330000Y-67627000D02*
X109030000Y-67627000D01*
X104330000Y-71327000D02*
X105255000Y-71327000D01*
X108105000Y-71327000D02*
X109030000Y-71327000D01*
X109130000Y-69202000D02*
X109130000Y-69752000D01*
%TO.C,R8*%
X100966000Y-51662359D02*
X100966000Y-51969641D01*
X101726000Y-51662359D02*
X101726000Y-51969641D01*
%TO.C,R11*%
X110668800Y-64008759D02*
X110668800Y-64316041D01*
X111428800Y-64008759D02*
X111428800Y-64316041D01*
%TO.C,R9*%
X100966000Y-54151559D02*
X100966000Y-54458841D01*
X101726000Y-54151559D02*
X101726000Y-54458841D01*
%TO.C,C6*%
X101367000Y-60178836D02*
X101367000Y-59963164D01*
X102087000Y-60178836D02*
X102087000Y-59963164D01*
%TO.C,C4*%
X103358836Y-53869000D02*
X103143164Y-53869000D01*
X103358836Y-54589000D02*
X103143164Y-54589000D01*
%TO.C,C12*%
X102383000Y-59289836D02*
X102383000Y-59074164D01*
X103103000Y-59289836D02*
X103103000Y-59074164D01*
%TO.C,R2*%
X106071641Y-52833000D02*
X105764359Y-52833000D01*
X106071641Y-53593000D02*
X105764359Y-53593000D01*
%TO.C,J1*%
X97730000Y-54610000D02*
X97730000Y-69910000D01*
X97730000Y-54610000D02*
X100390000Y-54610000D01*
X97730000Y-69910000D02*
X100390000Y-69910000D01*
X99060000Y-52010000D02*
X100390000Y-52010000D01*
X100390000Y-52010000D02*
X100390000Y-53340000D01*
X100390000Y-54610000D02*
X100390000Y-69910000D01*
%TO.C,R4*%
X106071641Y-54865000D02*
X105764359Y-54865000D01*
X106071641Y-55625000D02*
X105764359Y-55625000D01*
%TO.C,C5*%
X103358836Y-54885000D02*
X103143164Y-54885000D01*
X103358836Y-55605000D02*
X103143164Y-55605000D01*
%TO.C,C14*%
X108692836Y-51710000D02*
X108477164Y-51710000D01*
X108692836Y-52430000D02*
X108477164Y-52430000D01*
%TO.C,C2*%
X103358836Y-55901000D02*
X103143164Y-55901000D01*
X103358836Y-56621000D02*
X103143164Y-56621000D01*
D13*
%TO.C,U1*%
X102904100Y-60367100D02*
X102904100Y-60786261D01*
X102904100Y-65205739D02*
X102904100Y-65624900D01*
X102904100Y-65624900D02*
X103323261Y-65624900D01*
X103323261Y-60367100D02*
X102904100Y-60367100D01*
X107742739Y-65624900D02*
X108161900Y-65624900D01*
X108161900Y-60367100D02*
X107742739Y-60367100D01*
X108161900Y-60786261D02*
X108161900Y-60367100D01*
X108161900Y-65624900D02*
X108161900Y-65205739D01*
D14*
G36*
X102472300Y-63936501D02*
G01*
X102218300Y-63936501D01*
X102218300Y-63555501D01*
X102472300Y-63555501D01*
X102472300Y-63936501D01*
G37*
G36*
X105973500Y-59935300D02*
G01*
X105592499Y-59935300D01*
X105592499Y-59681300D01*
X105973500Y-59681300D01*
X105973500Y-59935300D01*
G37*
G36*
X108847700Y-64436500D02*
G01*
X108593700Y-64436500D01*
X108593700Y-64055500D01*
X108847700Y-64055500D01*
X108847700Y-64436500D01*
G37*
D12*
%TO.C,C10*%
X101367000Y-62083836D02*
X101367000Y-61868164D01*
X102087000Y-62083836D02*
X102087000Y-61868164D01*
%TO.C,R7*%
X111396359Y-67980000D02*
X111703641Y-67980000D01*
X111396359Y-67220000D02*
X111703641Y-67220000D01*
%TO.C,R6*%
X105764359Y-51817000D02*
X106071641Y-51817000D01*
X105764359Y-52577000D02*
X106071641Y-52577000D01*
%TO.C,C3*%
X103358836Y-52853000D02*
X103143164Y-52853000D01*
X103358836Y-53573000D02*
X103143164Y-53573000D01*
%TO.C,C17*%
X111525000Y-59328164D02*
X111525000Y-59543836D01*
X112245000Y-59328164D02*
X112245000Y-59543836D01*
%TO.C,C15*%
X101875000Y-70123164D02*
X101875000Y-70338836D01*
X102595000Y-70123164D02*
X102595000Y-70338836D01*
%TO.C,C18*%
X110384000Y-59328164D02*
X110384000Y-59543836D01*
X111104000Y-59328164D02*
X111104000Y-59543836D01*
%TD*%
M02*
