M48
; DRILL file {KiCad 9.0.7} date 2026-04-08T23:08:06-0700
; FORMAT={-:-/ absolute / inch / decimal}
; #@! TF.CreationDate,2026-04-08T23:08:06-07:00
; #@! TF.GenerationSoftware,Kicad,Pcbnew,9.0.7
; #@! TF.FileFunction,Plated,1,4,PTH
FMAT,2
INCH
; #@! TA.AperFunction,Plated,PTH,ViaDrill
T1C0.0118
; #@! TA.AperFunction,Plated,PTH,ComponentDrill
T2C0.0394
%
G90
G05
T1
X3.871Y-2.451
X3.872Y-2.154
X3.872Y-2.35
X3.896Y-2.022
X3.905Y-2.775
X3.948Y-2.35
X3.952Y-2.25
X3.952Y-2.55
X3.966Y-2.088
X3.9749Y-2.4211
X3.976Y-2.3839
X3.978Y-2.458
X3.982Y-2.292
X3.988Y-2.784
X3.992Y-2.668
X4.002Y-2.538
X4.015Y-2.095
X4.015Y-2.175
X4.015Y-2.215
X4.024Y-2.0047
X4.045Y-2.06
X4.045Y-2.25
X4.055Y-2.66
X4.06Y-2.577
X4.07Y-2.62
X4.078Y-2.296
X4.096Y-2.661
X4.12Y-2.095
X4.12Y-2.135
X4.12Y-2.175
X4.12Y-2.215
X4.122Y-2.035
X4.14Y-2.668
X4.145Y-2.77
X4.1548Y-2.4802
X4.16Y-2.266
X4.1641Y-2.35
X4.174Y-2.638
X4.184Y-2.312
X4.191Y-2.007
X4.1917Y-2.3503
X4.202Y-2.736
X4.204Y-2.674
X4.22Y-2.065
X4.22Y-2.266
X4.23Y-2.618
X4.25Y-2.105
X4.25Y-2.23
X4.25Y-2.77
X4.254Y-2.636
X4.266Y-2.3256
X4.275Y-2.025
X4.288Y-2.444
X4.288Y-2.66
X4.29Y-2.34
X4.305Y-2.155
X4.316Y-2.382
X4.328Y-2.51
X4.33Y-2.025
X4.33Y-2.265
X4.34Y-2.665
X4.344Y-2.735
X4.35Y-2.245
X4.356Y-2.388
X4.36Y-2.08
X4.36Y-2.215
X4.37Y-2.025
X4.401Y-2.2744
X4.402Y-2.396
X4.405Y-2.025
X4.4054Y-2.5447
X4.41Y-2.624
X4.4196Y-2.5211
X4.423Y-2.4937
X4.435Y-2.025
X4.435Y-2.05
X4.435Y-2.7835
X4.439Y-2.642
X4.44Y-2.12
X4.442Y-2.3256
X4.444Y-2.401
X4.445Y-2.199
X4.449Y-2.679
X4.454Y-2.448
X4.456Y-2.248
X4.46Y-2.35
X4.505Y-2.77
X4.509Y-2.031
X4.518Y-2.65
X4.526Y-2.45
X4.526Y-2.55
T2
X3.9Y-2.1
X3.9Y-2.2
X3.9Y-2.3
X3.9Y-2.4
X3.9Y-2.5
X3.9Y-2.6
X3.9Y-2.7
X4.5Y-2.1
X4.5Y-2.2
X4.5Y-2.3
X4.5Y-2.4
X4.5Y-2.5
X4.5Y-2.6
X4.5Y-2.7
M30
